<svg width="237" height="85" viewBox="0 0 237 85" fill="none" xmlns="http://www.w3.org/2000/svg">
<circle cx="18.5" cy="66.5" r="18.5" fill="#716E43"/>
<circle cx="18.5" cy="66.5" r="18" stroke="black" stroke-opacity="0.3"/>
<circle cx="68.5" cy="66.5" r="18.5" fill="#7E4649"/>
<circle cx="68.5" cy="66.5" r="18" stroke="black" stroke-opacity="0.3"/>
<circle cx="118.5" cy="66.5" r="18.5" fill="#D7C5AC"/>
<circle cx="118.5" cy="66.5" r="18" stroke="black" stroke-opacity="0.3"/>
<circle cx="168.5" cy="66.5" r="18.5" fill="#5F4630"/>
<circle cx="168.5" cy="66.5" r="18" stroke="black" stroke-opacity="0.3"/>
<circle cx="218.5" cy="66.5" r="18.5" fill="#0B0B0B"/>
<circle cx="218.5" cy="66.5" r="18" stroke="black" stroke-opacity="0.3"/>
<circle cx="18.5" cy="18.5" r="18.5" fill="#B4B28C"/>
<circle cx="18.5" cy="18.5" r="18" stroke="black" stroke-opacity="0.3"/>
<circle cx="68.5" cy="18.5" r="18.5" fill="#EED1CB"/>
<circle cx="68.5" cy="18.5" r="18" stroke="black" stroke-opacity="0.3"/>
<circle cx="118.5" cy="18.5" r="18.5" fill="#EFE5D9"/>
<circle cx="118.5" cy="18.5" r="18" stroke="black" stroke-opacity="0.3"/>
<circle cx="168.5" cy="18.5" r="18.5" fill="#856A57"/>
<circle cx="168.5" cy="18.5" r="18" stroke="black" stroke-opacity="0.3"/>
<circle cx="218.5" cy="18.5" r="18.5" fill="#4C3B2D"/>
<circle cx="218.5" cy="18.5" r="18" stroke="black" stroke-opacity="0.3"/>
</svg>
