<svg width="253" height="107" viewBox="0 0 253 107" fill="none" xmlns="http://www.w3.org/2000/svg">
<circle cx="20" cy="23.2883" r="20" fill="#B4B28C"/>
<circle cx="20" cy="23.2883" r="19.5" stroke="black" stroke-opacity="0.3"/>
<circle cx="73" cy="23.2883" r="20" fill="#EDCAC3"/>
<circle cx="73" cy="23.2883" r="19.5" stroke="black" stroke-opacity="0.3"/>
<circle cx="126" cy="23.2883" r="20" fill="#EFE5D9"/>
<circle cx="126" cy="23.2883" r="19.5" stroke="black" stroke-opacity="0.3"/>
<circle cx="179" cy="23.2883" r="20" fill="#856A57"/>
<circle cx="179" cy="23.2883" r="19.5" stroke="black" stroke-opacity="0.3"/>
<circle cx="232" cy="23.2883" r="20" fill="#4C3B2D"/>
<circle cx="232" cy="23.2883" r="19.5" stroke="black" stroke-opacity="0.3"/>
<circle cx="20" cy="82.8647" r="20" fill="#716E43"/>
<circle cx="20" cy="82.8647" r="19.5" stroke="black" stroke-opacity="0.3"/>
<circle cx="73" cy="82.8647" r="20" fill="#7E4649"/>
<circle cx="73" cy="82.8647" r="19.5" stroke="black" stroke-opacity="0.3"/>
<circle cx="126" cy="82.8647" r="20" fill="#D7C5AC"/>
<circle cx="126" cy="82.8647" r="19.5" stroke="black" stroke-opacity="0.3"/>
<circle cx="179" cy="82.8647" r="20" fill="#5F4630"/>
<circle cx="179" cy="82.8647" r="19.5" stroke="black" stroke-opacity="0.3"/>
<circle cx="232" cy="82.8647" r="20" fill="#0B0B0B"/>
<circle cx="232" cy="82.8647" r="19.5" stroke="black" stroke-opacity="0.3"/>
</svg>
