<svg width="350" height="43" viewBox="0 0 350 43" fill="none" xmlns="http://www.w3.org/2000/svg">
<path fill-rule="evenodd" clip-rule="evenodd" d="M27 9.20203C29.6548 5.63213 34.2832 0 42.0288 0C49.853 0 54 6.06076 54 11.5803C54 18.8425 49.637 25.0846 44.1402 30.2099C38.6353 35.3425 31.8754 39.4291 27 42.3717V9.20203Z" fill="#D7C5AC"/>
<path fill-rule="evenodd" clip-rule="evenodd" d="M27 42.3717C22.1247 39.4291 15.3647 35.3425 9.85981 30.2099C4.36298 25.0846 -4.26518e-05 18.8425 -4.26518e-05 11.5803C-4.26518e-05 6.06079 4.1467 3.40285e-05 11.9711 3.40285e-05C19.7168 3.40285e-05 24.345 5.63216 27 9.20206V42.3717Z" fill="#EFE5D9"/>
<path d="M11.9707 0.5C19.3566 0.5 23.8327 5.79785 26.5 9.36816V41.4834C21.6979 38.5798 15.3842 34.6763 10.2012 29.8438C4.7405 24.7522 0.5 18.6343 0.5 11.5801C0.500111 6.2934 4.46437 0.50018 11.9707 0.5Z" stroke="black" stroke-opacity="0.02"/>
<path fill-rule="evenodd" clip-rule="evenodd" d="M100.975 42.3717C96.104 39.4291 89.3503 35.3425 83.8506 30.2099C78.3589 25.0846 74 18.8425 74 11.5803C74 6.06076 78.1429 0 85.9599 0C93.6984 0 98.3222 5.63213 100.975 9.20203V42.3717Z" fill="#B4B28C"/>
<path fill-rule="evenodd" clip-rule="evenodd" d="M101.025 9.20203C103.678 5.63213 108.302 0 116.04 0C123.857 0 128 6.06076 128 11.5803C128 18.8425 123.641 25.0846 118.149 30.2099C112.65 35.3425 105.896 39.4291 101.025 42.3717V9.20203Z" fill="#716E43"/>
<path fill-rule="evenodd" clip-rule="evenodd" d="M175 9.20203C177.655 5.63213 182.283 0 190.029 0C197.853 0 202 6.06076 202 11.5803C202 18.8425 197.637 25.0846 192.14 30.2099C186.635 35.3425 179.875 39.4291 175 42.3717V9.20203Z" fill="#7E4649"/>
<path fill-rule="evenodd" clip-rule="evenodd" d="M175 42.3717C170.125 39.4291 163.365 35.3425 157.86 30.2099C152.363 25.0846 148 18.8425 148 11.5803C148 6.06079 152.147 3.40285e-05 159.971 3.40285e-05C167.717 3.40285e-05 172.345 5.63216 175 9.20206V42.3717Z" fill="#EDCAC2"/>
<path fill-rule="evenodd" clip-rule="evenodd" d="M249 9.20203C251.655 5.63213 256.283 0 264.029 0C271.853 0 276 6.06076 276 11.5803C276 18.8425 271.637 25.0846 266.14 30.2099C260.635 35.3425 253.875 39.4291 249 42.3717V9.20203Z" fill="#5F4630"/>
<path fill-rule="evenodd" clip-rule="evenodd" d="M249 42.3717C244.125 39.4291 237.365 35.3425 231.86 30.2099C226.363 25.0846 222 18.8425 222 11.5803C222 6.06079 226.147 3.40285e-05 233.971 3.40285e-05C241.717 3.40285e-05 246.345 5.63216 249 9.20206V42.3717Z" fill="#856A57"/>
<path fill-rule="evenodd" clip-rule="evenodd" d="M323 9.20203C325.655 5.63213 330.283 0 338.029 0C345.853 0 350 6.06076 350 11.5803C350 18.8425 345.637 25.0846 340.14 30.2099C334.635 35.3425 327.875 39.4291 323 42.3717V9.20203Z" fill="#0B0B0B"/>
<path fill-rule="evenodd" clip-rule="evenodd" d="M323 42.3717C318.125 39.4291 311.365 35.3425 305.86 30.2099C300.363 25.0846 296 18.8425 296 11.5803C296 6.06079 300.147 3.40285e-05 307.971 3.40285e-05C315.717 3.40285e-05 320.345 5.63216 323 9.20206V42.3717Z" fill="#4C3B2D"/>
</svg>
