<svg width="322" height="299" viewBox="0 0 322 299" fill="none" xmlns="http://www.w3.org/2000/svg">
<path d="M11.9143 19.5048C11.9424 19.5048 11.9564 19.547 11.9564 19.6313C11.9564 19.7156 11.9424 19.7577 11.9143 19.7577C11.6193 19.7577 11.2893 19.7507 10.9241 19.7366C10.5729 19.7225 10.2077 19.7156 9.8285 19.7156C9.47735 19.7156 9.13323 19.7225 8.79613 19.7366C8.45903 19.7507 8.15705 19.7577 7.89018 19.7577C7.86209 19.7577 7.84804 19.7156 7.84804 19.6313C7.84804 19.547 7.86209 19.5048 7.89018 19.5048C8.28346 19.5048 8.53629 19.4135 8.64865 19.2308C8.76101 19.0481 8.8172 18.6548 8.8172 18.0506V13.3299C8.8172 12.9084 8.81018 12.6133 8.79613 12.4447C8.78208 12.2621 8.72591 12.1567 8.62758 12.1286C8.54331 12.0865 8.39583 12.0654 8.18514 12.0654H5.76224C5.55155 12.0654 5.39705 12.0865 5.29873 12.1286C5.21445 12.1707 5.15826 12.2831 5.13018 12.4658C5.11613 12.6344 5.10911 12.9365 5.10911 13.372V18.0506C5.10911 18.6548 5.15826 19.0481 5.25659 19.2308C5.36895 19.4135 5.61476 19.5048 5.99399 19.5048C6.03613 19.5048 6.0572 19.547 6.0572 19.6313C6.0572 19.7156 6.03613 19.7577 5.99399 19.7577C5.74117 19.7577 5.45323 19.7507 5.13018 19.7366C4.80713 19.7225 4.48407 19.7156 4.16102 19.7156C3.76773 19.7156 3.38147 19.7225 3.00224 19.7366C2.63705 19.7507 2.29995 19.7577 1.99094 19.7577C1.9488 19.7577 1.92773 19.7156 1.92773 19.6313C1.92773 19.547 1.9488 19.5048 1.99094 19.5048C2.48254 19.5048 2.79857 19.4135 2.93903 19.2308C3.07949 19.0481 3.14972 18.6548 3.14972 18.0506V13.3299C3.14972 12.7117 3.07949 12.3183 2.93903 12.1497C2.79857 11.967 2.48957 11.8757 2.01201 11.8757C1.96987 11.8757 1.9488 11.8336 1.9488 11.7493C1.9488 11.665 1.96987 11.6228 2.01201 11.6228H11.9143C11.9424 11.6228 11.9564 11.665 11.9564 11.7493C11.9564 11.8336 11.9424 11.8757 11.9143 11.8757C11.4367 11.8757 11.1277 11.9741 10.9873 12.1707C10.8468 12.3674 10.7766 12.7679 10.7766 13.372V18.0506C10.7766 18.6548 10.8468 19.0481 10.9873 19.2308C11.1277 19.4135 11.4367 19.5048 11.9143 19.5048ZM15.3729 15.9432V15.4374H21.0403V15.9432H15.3729ZM14.4248 18.0506V13.3299C14.4248 12.7117 14.3546 12.3183 14.2141 12.1497C14.0736 11.967 13.7647 11.8757 13.2871 11.8757C13.2449 11.8757 13.2239 11.8336 13.2239 11.7493C13.2239 11.665 13.2449 11.6228 13.2871 11.6228C13.582 11.6228 13.9121 11.6298 14.2773 11.6439C14.6565 11.6579 15.0427 11.665 15.4361 11.665C15.8153 11.665 16.1876 11.6579 16.5527 11.6439C16.9179 11.6298 17.241 11.6228 17.5219 11.6228C17.5499 11.6228 17.564 11.665 17.564 11.7493C17.564 11.8336 17.5499 11.8757 17.5219 11.8757C17.0443 11.8757 16.7353 11.9741 16.5948 12.1707C16.4543 12.3674 16.3842 12.7679 16.3842 13.372V18.0506C16.3842 18.6548 16.4543 19.0481 16.5948 19.2308C16.7353 19.4135 17.0443 19.5048 17.5219 19.5048C17.5499 19.5048 17.564 19.547 17.564 19.6313C17.564 19.7156 17.5499 19.7577 17.5219 19.7577C17.2269 19.7577 16.8968 19.7507 16.5316 19.7366C16.1804 19.7225 15.8153 19.7156 15.4361 19.7156C15.0427 19.7156 14.6565 19.7225 14.2773 19.7366C13.9121 19.7507 13.575 19.7577 13.266 19.7577C13.2239 19.7577 13.2028 19.7156 13.2028 19.6313C13.2028 19.547 13.2239 19.5048 13.266 19.5048C13.7575 19.5048 14.0736 19.4135 14.2141 19.2308C14.3546 19.0481 14.4248 18.6548 14.4248 18.0506ZM20.0922 18.0506V13.3299C20.0922 12.7117 20.0221 12.3183 19.8816 12.1497C19.7411 11.967 19.4321 11.8757 18.9545 11.8757C18.9124 11.8757 18.8913 11.8336 18.8913 11.7493C18.8913 11.665 18.9124 11.6228 18.9545 11.6228C19.2495 11.6228 19.5796 11.6298 19.9448 11.6439C20.324 11.6579 20.7102 11.665 21.1035 11.665C21.4828 11.665 21.855 11.6579 22.2202 11.6439C22.5853 11.6298 22.9085 11.6228 23.1893 11.6228C23.2174 11.6228 23.2315 11.665 23.2315 11.7493C23.2315 11.8336 23.2174 11.8757 23.1893 11.8757C22.7117 11.8757 22.4028 11.9741 22.2623 12.1707C22.1218 12.3674 22.0516 12.7679 22.0516 13.372V18.0506C22.0516 18.6548 22.1218 19.0481 22.2623 19.2308C22.4028 19.4135 22.7117 19.5048 23.1893 19.5048C23.2174 19.5048 23.2315 19.547 23.2315 19.6313C23.2315 19.7156 23.2174 19.7577 23.1893 19.7577C22.8944 19.7577 22.5643 19.7507 22.1991 19.7366C21.8479 19.7225 21.4828 19.7156 21.1035 19.7156C20.7102 19.7156 20.324 19.7225 19.9448 19.7366C19.5655 19.7507 19.2284 19.7577 18.9335 19.7577C18.8913 19.7577 18.8703 19.7156 18.8703 19.6313C18.8703 19.547 18.8913 19.5048 18.9335 19.5048C19.425 19.5048 19.7411 19.4135 19.8816 19.2308C20.0221 19.0481 20.0922 18.6548 20.0922 18.0506Z" fill="#9F9892"/>
<path d="M56.8329 11.6439C57.17 11.6439 57.5422 11.6369 57.9495 11.6228C58.3709 11.5947 58.7571 11.5807 59.1083 11.5807C60.0775 11.5807 60.8149 11.7141 61.3205 11.9811C61.8403 12.248 62.1001 12.6485 62.1001 13.1823C62.1001 13.9551 61.3978 14.7138 59.9932 15.4584L59.7404 15.2898C59.8106 15.0932 59.8668 14.8753 59.9089 14.6365C59.9511 14.3836 59.9721 14.1027 59.9721 13.7935C59.9721 13.1332 59.8598 12.6695 59.635 12.4026C59.4243 12.1356 59.0803 12.0022 58.6027 12.0022C58.2797 12.0022 58.0619 12.0864 57.9495 12.255C57.8372 12.4236 57.781 12.796 57.781 13.372V18.0506C57.781 18.4862 57.8653 18.8163 58.0338 19.0412C58.2024 19.2519 58.5464 19.3573 59.0662 19.3573C59.6702 19.3573 60.1126 19.2167 60.3935 18.9358C60.6744 18.6407 60.8149 18.2051 60.8149 17.6291C60.8149 17.0531 60.6604 16.5754 60.3514 16.1961C60.0564 15.8167 59.5508 15.627 58.8344 15.627H56.9172L56.8961 15.2266H59.5718C61.8472 15.2266 62.985 15.8799 62.985 17.1866C62.985 17.9453 62.6548 18.5705 61.9947 19.0622C61.3346 19.5539 60.4778 19.7999 59.4243 19.7999C59.1153 19.7999 58.701 19.7858 58.1813 19.7577C57.6756 19.7297 57.2262 19.7156 56.8329 19.7156C56.4396 19.7156 56.0533 19.7225 55.6741 19.7366C55.309 19.7507 54.9719 19.7577 54.6628 19.7577C54.6207 19.7577 54.5996 19.7156 54.5996 19.6313C54.5996 19.547 54.6207 19.5048 54.6628 19.5048C55.1544 19.5048 55.4704 19.4135 55.6109 19.2308C55.7514 19.0481 55.8216 18.6548 55.8216 18.0506V13.3299C55.8216 12.7117 55.7514 12.3183 55.6109 12.1497C55.4704 11.967 55.1615 11.8757 54.6839 11.8757C54.6417 11.8757 54.6207 11.8336 54.6207 11.7493C54.6207 11.665 54.6417 11.6228 54.6839 11.6228C54.9788 11.6228 55.309 11.6298 55.6741 11.6439C56.0533 11.6439 56.4396 11.6439 56.8329 11.6439ZM65.8309 19.7577C65.7888 19.7577 65.7677 19.7156 65.7677 19.6313C65.7677 19.547 65.7888 19.5048 65.8309 19.5048C66.3225 19.5048 66.6385 19.4135 66.779 19.2308C66.9194 19.0481 66.9897 18.6548 66.9897 18.0506V13.372C66.9897 12.8803 66.9546 12.5431 66.8844 12.3604C66.8141 12.1778 66.6596 12.0864 66.4209 12.0864C65.9573 12.0864 65.571 12.2621 65.2621 12.6133C64.953 12.9505 64.6581 13.5265 64.3772 14.3415C64.3631 14.3836 64.314 14.4047 64.2297 14.4047C64.1594 14.4047 64.1244 14.3836 64.1244 14.3415C64.1244 14.1448 64.1244 13.8498 64.1244 13.4563C64.1244 13.0629 64.1173 12.6555 64.1033 12.234C64.1033 11.8125 64.1033 11.4753 64.1033 11.2224C64.1033 11.1521 64.1454 11.117 64.2297 11.117C64.314 11.117 64.3561 11.1521 64.3561 11.2224C64.3561 11.405 64.637 11.5244 65.1989 11.5807C65.7747 11.6228 66.7228 11.6439 68.0432 11.6439C68.8438 11.6439 69.5039 11.6369 70.0236 11.6228C70.5432 11.5947 70.9296 11.5526 71.1824 11.4964C71.4352 11.4401 71.5616 11.3488 71.5616 11.2224C71.5616 11.1521 71.6038 11.117 71.688 11.117C71.7723 11.117 71.8144 11.1521 71.8144 11.2224C71.8144 11.4753 71.8144 11.8125 71.8144 12.234C71.8144 12.6555 71.8073 13.0629 71.7934 13.4563C71.7934 13.8498 71.7934 14.1448 71.7934 14.3415C71.7934 14.3836 71.7512 14.4047 71.667 14.4047C71.5967 14.4047 71.5545 14.3836 71.5406 14.3415C71.2736 13.5265 70.9787 12.9505 70.6557 12.6133C70.3466 12.2621 69.9674 12.0864 69.518 12.0864C69.2932 12.0864 69.1387 12.1778 69.0544 12.3604C68.9841 12.5431 68.9491 12.8803 68.9491 13.372V18.0506C68.9491 18.6548 69.0193 19.0481 69.1598 19.2308C69.3002 19.4135 69.6092 19.5048 70.0868 19.5048C70.129 19.5048 70.15 19.547 70.15 19.6313C70.15 19.7156 70.129 19.7577 70.0868 19.7577C69.7919 19.7577 69.4617 19.7507 69.0966 19.7366C68.7454 19.7225 68.3803 19.7156 68.001 19.7156C67.6077 19.7156 67.2215 19.7225 66.8422 19.7366C66.477 19.7507 66.1399 19.7577 65.8309 19.7577Z" fill="#9F9892"/>
<path d="M106.323 20.0106C105.354 20.0106 104.553 19.8068 103.921 19.3994C103.289 18.9779 102.819 18.4441 102.51 17.7977C102.215 17.1514 102.067 16.4981 102.067 15.8378C102.067 15.1353 102.215 14.5101 102.51 13.9621C102.805 13.4142 103.191 12.9575 103.669 12.5922C104.16 12.2129 104.701 11.9249 105.291 11.7282C105.881 11.5315 106.464 11.4331 107.04 11.4331C107.447 11.4331 107.854 11.4964 108.262 11.6228C108.669 11.7352 109.006 11.9108 109.273 12.1497C109.54 12.3745 109.673 12.6625 109.673 13.0137C109.673 13.2526 109.575 13.4774 109.378 13.6881C109.182 13.8848 108.894 13.9832 108.514 13.9832C108.163 13.9832 107.889 13.8919 107.693 13.7092C107.496 13.5265 107.342 13.2597 107.229 12.9084C107.131 12.5712 107.019 12.3183 106.892 12.1497C106.78 11.967 106.555 11.8757 106.218 11.8757C105.614 11.8757 105.129 12.1778 104.764 12.7819C104.413 13.3861 104.237 14.1729 104.237 15.1423C104.237 15.8448 104.343 16.4911 104.553 17.0812C104.764 17.6572 105.108 18.1209 105.586 18.4721C106.063 18.8093 106.702 18.9779 107.503 18.9779C107.924 18.9779 108.276 18.9288 108.557 18.8304C108.852 18.732 109.175 18.5986 109.526 18.43C109.554 18.4019 109.589 18.4159 109.631 18.4721C109.687 18.5284 109.701 18.5705 109.673 18.5986C109.182 19.0481 108.676 19.3994 108.156 19.6523C107.636 19.8911 107.026 20.0106 106.323 20.0106ZM110.744 25.5533C110.701 25.5533 110.68 25.5112 110.68 25.4269C110.68 25.3426 110.701 25.3004 110.744 25.3004C111.235 25.3004 111.551 25.2091 111.692 25.0264C111.846 24.8437 111.923 24.4504 111.923 23.8462V13.3299C111.923 12.7117 111.811 12.3183 111.586 12.1497C111.376 11.967 111.024 11.8757 110.533 11.8757C110.505 11.8757 110.491 11.8336 110.491 11.7493C110.491 11.665 110.505 11.6228 110.533 11.6228C110.744 11.6228 111.024 11.6228 111.376 11.6228C111.727 11.6228 112.085 11.6228 112.45 11.6228C112.829 11.6228 113.152 11.6228 113.419 11.6228C113.616 11.6228 113.742 11.665 113.799 11.7493C113.855 11.8195 113.883 11.9389 113.883 12.1075V23.8462C113.883 24.2397 113.925 24.5417 114.009 24.7525C114.107 24.9632 114.29 25.1038 114.557 25.174C114.824 25.2583 115.224 25.3004 115.758 25.3004C115.8 25.3004 115.821 25.3426 115.821 25.4269C115.821 25.5112 115.8 25.5533 115.758 25.5533C115.365 25.5533 114.922 25.5463 114.431 25.5322C113.939 25.5181 113.419 25.5112 112.872 25.5112C112.478 25.5112 112.092 25.5181 111.713 25.5322C111.347 25.5463 111.024 25.5533 110.744 25.5533ZM115.695 20.0317C115.147 20.0317 114.676 19.9895 114.283 19.9052C113.904 19.8209 113.447 19.6875 112.914 19.5048L113.651 18.1771C113.96 18.5564 114.29 18.8726 114.641 19.1255C115.006 19.3784 115.491 19.5048 116.095 19.5048C116.755 19.5048 117.275 19.2167 117.654 18.6407C118.033 18.0647 118.223 17.1444 118.223 15.8799C118.223 14.756 117.963 13.92 117.443 13.372C116.924 12.81 116.313 12.529 115.61 12.529C115.091 12.529 114.641 12.6625 114.262 12.9294C113.883 13.1964 113.511 13.5336 113.145 13.941L112.935 13.6881C113.651 12.8592 114.332 12.2621 114.978 11.8968C115.639 11.5315 116.313 11.3488 117.001 11.3488C117.591 11.3488 118.139 11.5034 118.644 11.8125C119.15 12.1075 119.557 12.5431 119.866 13.1191C120.189 13.6951 120.351 14.3977 120.351 15.2266C120.351 16.1259 120.203 16.8845 119.908 17.5027C119.627 18.1209 119.255 18.6197 118.792 18.999C118.328 19.3643 117.823 19.6243 117.275 19.7788C116.741 19.9474 116.214 20.0317 115.695 20.0317Z" fill="#9F9892"/>
<path d="M155.782 18.0506V13.3299C155.782 12.7117 155.733 12.3183 155.634 12.1497C155.55 11.967 155.346 11.8757 155.023 11.8757C154.981 11.8757 154.96 11.8336 154.96 11.7493C154.96 11.665 154.981 11.6228 155.023 11.6228C155.262 11.6228 155.536 11.6298 155.845 11.6439C156.168 11.6579 156.484 11.665 156.793 11.665C157.172 11.665 157.545 11.6579 157.91 11.6439C158.275 11.6298 158.599 11.6228 158.879 11.6228C158.921 11.6228 158.942 11.665 158.942 11.7493C158.942 11.8336 158.921 11.8757 158.879 11.8757C158.401 11.8757 158.093 11.9741 157.952 12.1707C157.826 12.3674 157.762 12.7679 157.762 13.372V18.0506C157.762 18.6548 157.826 19.0481 157.952 19.2308C158.093 19.4135 158.401 19.5048 158.879 19.5048C158.921 19.5048 158.942 19.547 158.942 19.6313C158.942 19.7156 158.921 19.7577 158.879 19.7577C158.584 19.7577 158.254 19.7507 157.889 19.7366C157.537 19.7225 157.172 19.7156 156.793 19.7156C156.4 19.7156 156.014 19.7225 155.634 19.7366C155.255 19.7507 154.918 19.7577 154.623 19.7577C154.596 19.7577 154.581 19.7156 154.581 19.6313C154.581 19.547 154.596 19.5048 154.623 19.5048C155.114 19.5048 155.43 19.4135 155.571 19.2308C155.712 19.0481 155.782 18.6548 155.782 18.0506ZM152.896 13.372C152.896 13.4844 152.896 13.5897 152.896 13.6881C152.896 13.7724 152.896 13.8567 152.896 13.941C152.896 14.5733 152.994 15.03 153.191 15.3109C153.401 15.5779 153.732 15.7113 154.181 15.7113C154.659 15.7113 155.038 15.6692 155.318 15.5849C155.613 15.4865 155.894 15.3672 156.161 15.2266L156.245 15.4374C155.698 15.9151 155.156 16.2523 154.623 16.449C154.09 16.6456 153.612 16.744 153.191 16.744C152.502 16.744 151.954 16.5473 151.547 16.1539C151.153 15.7605 150.957 15.1775 150.957 14.4047V13.3299C150.957 12.7117 150.915 12.3183 150.831 12.1497C150.761 11.967 150.585 11.8757 150.304 11.8757C150.276 11.8757 150.262 11.8336 150.262 11.7493C150.262 11.665 150.276 11.6228 150.304 11.6228C150.542 11.6228 150.803 11.6298 151.084 11.6439C151.364 11.6579 151.659 11.665 151.969 11.665C152.278 11.665 152.58 11.6579 152.874 11.6439C153.184 11.6298 153.458 11.6228 153.696 11.6228C153.724 11.6228 153.738 11.665 153.738 11.7493C153.738 11.8336 153.724 11.8757 153.696 11.8757C153.359 11.8757 153.142 11.9741 153.043 12.1707C152.944 12.3674 152.896 12.7679 152.896 13.372ZM161.834 19.7577C161.792 19.7577 161.771 19.7156 161.771 19.6313C161.771 19.547 161.792 19.5048 161.834 19.5048C162.325 19.5048 162.641 19.4135 162.782 19.2308C162.922 19.0481 162.993 18.6548 162.993 18.0506V13.372C162.993 12.8803 162.957 12.5431 162.887 12.3604C162.816 12.1778 162.662 12.0864 162.424 12.0864C161.96 12.0864 161.573 12.2621 161.265 12.6133C160.956 12.9505 160.661 13.5265 160.38 14.3415C160.366 14.3836 160.317 14.4047 160.233 14.4047C160.162 14.4047 160.127 14.3836 160.127 14.3415C160.127 14.1448 160.127 13.8498 160.127 13.4563C160.127 13.0629 160.119 12.6555 160.106 12.234C160.106 11.8125 160.106 11.4753 160.106 11.2224C160.106 11.1521 160.148 11.117 160.233 11.117C160.317 11.117 160.359 11.1521 160.359 11.2224C160.359 11.405 160.64 11.5244 161.202 11.5807C161.777 11.6228 162.725 11.6439 164.046 11.6439C164.847 11.6439 165.506 11.6369 166.027 11.6228C166.545 11.5947 166.933 11.5526 167.185 11.4964C167.438 11.4401 167.565 11.3488 167.565 11.2224C167.565 11.1521 167.607 11.117 167.691 11.117C167.775 11.117 167.817 11.1521 167.817 11.2224C167.817 11.4753 167.817 11.8125 167.817 12.234C167.817 12.6555 167.81 13.0629 167.796 13.4563C167.796 13.8498 167.796 14.1448 167.796 14.3415C167.796 14.3836 167.754 14.4047 167.67 14.4047C167.599 14.4047 167.557 14.3836 167.544 14.3415C167.276 13.5265 166.981 12.9505 166.659 12.6133C166.349 12.2621 165.97 12.0864 165.521 12.0864C165.296 12.0864 165.142 12.1778 165.057 12.3604C164.986 12.5431 164.952 12.8803 164.952 13.372V18.0506C164.952 18.6548 165.022 19.0481 165.163 19.2308C165.302 19.4135 165.612 19.5048 166.09 19.5048C166.132 19.5048 166.153 19.547 166.153 19.6313C166.153 19.7156 166.132 19.7577 166.09 19.7577C165.795 19.7577 165.464 19.7507 165.1 19.7366C164.748 19.7225 164.383 19.7156 164.004 19.7156C163.61 19.7156 163.224 19.7225 162.845 19.7366C162.479 19.7507 162.142 19.7577 161.834 19.7577Z" fill="#9F9892"/>
<path d="M208.117 19.5048C208.144 19.5048 208.159 19.547 208.159 19.6313C208.159 19.7156 208.144 19.7577 208.117 19.7577C207.822 19.7577 207.491 19.7507 207.126 19.7366C206.775 19.7225 206.41 19.7156 206.031 19.7156C205.679 19.7156 205.336 19.7225 204.999 19.7366C204.661 19.7507 204.36 19.7577 204.093 19.7577C204.065 19.7577 204.05 19.7156 204.05 19.6313C204.05 19.547 204.065 19.5048 204.093 19.5048C204.486 19.5048 204.739 19.4135 204.851 19.2308C204.963 19.0481 205.02 18.6548 205.02 18.0506V13.3299C205.02 12.9084 205.013 12.6133 204.999 12.4447C204.984 12.2621 204.929 12.1567 204.83 12.1286C204.746 12.0865 204.598 12.0654 204.388 12.0654H201.965C201.754 12.0654 201.6 12.0865 201.501 12.1286C201.417 12.1707 201.36 12.2831 201.333 12.4658C201.318 12.6344 201.312 12.9365 201.312 13.372V18.0506C201.312 18.6548 201.36 19.0481 201.459 19.2308C201.571 19.4135 201.817 19.5048 202.196 19.5048C202.239 19.5048 202.26 19.547 202.26 19.6313C202.26 19.7156 202.239 19.7577 202.196 19.7577C201.944 19.7577 201.655 19.7507 201.333 19.7366C201.01 19.7225 200.686 19.7156 200.363 19.7156C199.97 19.7156 199.584 19.7225 199.205 19.7366C198.84 19.7507 198.503 19.7577 198.193 19.7577C198.151 19.7577 198.13 19.7156 198.13 19.6313C198.13 19.547 198.151 19.5048 198.193 19.5048C198.684 19.5048 199.001 19.4135 199.141 19.2308C199.282 19.0481 199.352 18.6548 199.352 18.0506V13.3299C199.352 12.7117 199.282 12.3183 199.141 12.1497C199.001 11.967 198.692 11.8757 198.214 11.8757C198.172 11.8757 198.151 11.8336 198.151 11.7493C198.151 11.665 198.172 11.6228 198.214 11.6228H208.117C208.144 11.6228 208.159 11.665 208.159 11.7493C208.159 11.8336 208.144 11.8757 208.117 11.8757C207.639 11.8757 207.331 11.9741 207.19 12.1707C207.049 12.3674 206.979 12.7679 206.979 13.372V18.0506C206.979 18.6548 207.049 19.0481 207.19 19.2308C207.331 19.4135 207.639 19.5048 208.117 19.5048ZM211.049 19.7577C211.007 19.7577 210.986 19.7156 210.986 19.6313C210.986 19.547 211.007 19.5048 211.049 19.5048C211.54 19.5048 211.856 19.4135 211.997 19.2308C212.137 19.0481 212.208 18.6548 212.208 18.0506V13.372C212.208 12.8803 212.172 12.5431 212.103 12.3604C212.032 12.1778 211.877 12.0864 211.639 12.0864C211.176 12.0864 210.788 12.2621 210.48 12.6133C210.171 12.9505 209.876 13.5265 209.595 14.3415C209.581 14.3836 209.532 14.4047 209.448 14.4047C209.377 14.4047 209.343 14.3836 209.343 14.3415C209.343 14.1448 209.343 13.8498 209.343 13.4563C209.343 13.0629 209.335 12.6555 209.322 12.234C209.322 11.8125 209.322 11.4753 209.322 11.2224C209.322 11.1521 209.364 11.117 209.448 11.117C209.532 11.117 209.574 11.1521 209.574 11.2224C209.574 11.405 209.855 11.5244 210.417 11.5807C210.993 11.6228 211.941 11.6439 213.261 11.6439C214.062 11.6439 214.722 11.6369 215.242 11.6228C215.761 11.5947 216.148 11.5526 216.401 11.4964C216.653 11.4401 216.78 11.3488 216.78 11.2224C216.78 11.1521 216.822 11.117 216.906 11.117C216.991 11.117 217.033 11.1521 217.033 11.2224C217.033 11.4753 217.033 11.8125 217.033 12.234C217.033 12.6555 217.025 13.0629 217.012 13.4563C217.012 13.8498 217.012 14.1448 217.012 14.3415C217.012 14.3836 216.969 14.4047 216.885 14.4047C216.814 14.4047 216.772 14.3836 216.759 14.3415C216.491 13.5265 216.197 12.9505 215.874 12.6133C215.564 12.2621 215.185 12.0864 214.736 12.0864C214.511 12.0864 214.357 12.1778 214.273 12.3604C214.202 12.5431 214.167 12.8803 214.167 13.372V18.0506C214.167 18.6548 214.237 19.0481 214.378 19.2308C214.518 19.4135 214.827 19.5048 215.305 19.5048C215.347 19.5048 215.368 19.547 215.368 19.6313C215.368 19.7156 215.347 19.7577 215.305 19.7577C215.01 19.7577 214.68 19.7507 214.315 19.7366C213.963 19.7225 213.599 19.7156 213.219 19.7156C212.826 19.7156 212.44 19.7225 212.06 19.7366C211.694 19.7507 211.357 19.7577 211.049 19.7577Z" fill="#9F9892"/>
<path d="M252.487 20.0106C251.518 20.0106 250.718 19.8068 250.085 19.3994C249.453 18.9779 248.983 18.4441 248.674 17.7977C248.379 17.1514 248.231 16.4981 248.231 15.8378C248.231 15.1353 248.379 14.5101 248.674 13.9621C248.969 13.4142 249.355 12.9575 249.833 12.5922C250.324 12.2129 250.865 11.9249 251.455 11.7282C252.045 11.5315 252.628 11.4331 253.204 11.4331C253.611 11.4331 254.019 11.4964 254.426 11.6228C254.833 11.7352 255.17 11.9108 255.437 12.1497C255.704 12.3745 255.837 12.6625 255.837 13.0137C255.837 13.2525 255.738 13.4774 255.542 13.6881C255.346 13.8848 255.058 13.9832 254.678 13.9832C254.327 13.9832 254.053 13.8919 253.857 13.7092C253.661 13.5265 253.505 13.2597 253.393 12.9084C253.295 12.5712 253.183 12.3183 253.056 12.1497C252.944 11.967 252.719 11.8757 252.382 11.8757C251.778 11.8757 251.293 12.1778 250.928 12.7819C250.577 13.3861 250.402 14.1729 250.402 15.1423C250.402 15.8448 250.507 16.4911 250.718 17.0812C250.928 17.6572 251.272 18.1208 251.75 18.4721C252.228 18.8093 252.867 18.9779 253.667 18.9779C254.089 18.9779 254.44 18.9288 254.721 18.8304C255.016 18.732 255.338 18.5986 255.69 18.43C255.717 18.4019 255.753 18.4159 255.795 18.4721C255.852 18.5284 255.865 18.5705 255.837 18.5986C255.346 19.0481 254.84 19.3994 254.32 19.6523C253.8 19.8911 253.189 20.0106 252.487 20.0106ZM261.082 20.0317C260.351 20.0317 259.67 19.8631 259.038 19.5259C258.421 19.1746 257.922 18.6266 257.542 17.882C257.178 17.1374 256.995 16.175 256.995 14.9948C256.995 13.2104 257.191 11.7633 257.585 10.6534C257.978 9.52937 258.539 8.65826 259.27 8.04007C260.001 7.40782 260.865 6.94417 261.862 6.64913C262.325 6.50862 262.746 6.36813 263.126 6.22763C263.505 6.07308 263.842 5.86233 264.137 5.59538C264.446 5.32843 264.706 4.95611 264.917 4.47841C264.931 4.43626 264.973 4.42221 265.043 4.43626C265.113 4.45032 265.142 4.47841 265.127 4.52056C265.015 5.27926 264.874 5.89745 264.706 6.37515C264.552 6.8388 264.348 7.21113 264.095 7.49212C263.857 7.77312 263.554 8.00494 263.189 8.18759C262.824 8.35619 262.382 8.52479 261.862 8.69339C261.257 8.87604 260.688 9.11489 260.155 9.40994C259.622 9.70499 259.144 10.1124 258.722 10.6323C258.315 11.1521 257.992 11.8406 257.753 12.6976C257.528 13.5406 257.416 14.6154 257.416 15.9221L257.226 15.0791C257.494 14.222 257.831 13.5547 258.238 13.077C258.659 12.5993 259.081 12.2621 259.502 12.0654C259.938 11.8546 260.317 11.7282 260.64 11.686C260.977 11.6298 261.208 11.6017 261.335 11.6017C262.178 11.6017 262.879 11.7282 263.442 11.9811C264.017 12.2199 264.474 12.5431 264.811 12.9505C265.163 13.3579 265.408 13.8005 265.549 14.2782C265.703 14.7419 265.78 15.1986 265.78 15.6481C265.78 16.5613 265.555 17.3482 265.106 18.0085C264.67 18.6548 264.095 19.1535 263.379 19.5048C262.677 19.8561 261.91 20.0317 261.082 20.0317ZM261.904 19.5891C262.437 19.5891 262.852 19.3151 263.147 18.7672C263.442 18.2192 263.589 17.4043 263.589 16.3225C263.589 15.3672 263.469 14.5733 263.231 13.941C262.993 13.2947 262.683 12.817 262.304 12.5079C261.925 12.1848 261.51 12.0232 261.061 12.0232C260.612 12.0232 260.254 12.1848 259.986 12.5079C259.734 12.817 259.551 13.2175 259.439 13.7092C259.34 14.187 259.291 14.6928 259.291 15.2266C259.291 16.0555 259.397 16.8002 259.607 17.4605C259.818 18.1208 260.119 18.6407 260.513 19.0201C260.907 19.3994 261.37 19.5891 261.904 19.5891Z" fill="#9F9892"/>
<path d="M299.123 11.6439C299.46 11.6439 299.833 11.6369 300.24 11.6228C300.661 11.5947 301.047 11.5807 301.398 11.5807C302.368 11.5807 303.105 11.7141 303.611 11.9811C304.131 12.248 304.39 12.6485 304.39 13.1823C304.39 13.9551 303.688 14.7138 302.283 15.4584L302.03 15.2898C302.1 15.0932 302.157 14.8753 302.199 14.6365C302.241 14.3836 302.262 14.1027 302.262 13.7935C302.262 13.1332 302.15 12.6695 301.925 12.4026C301.714 12.1356 301.371 12.0022 300.893 12.0022C300.57 12.0022 300.351 12.0864 300.24 12.255C300.128 12.4236 300.071 12.796 300.071 13.372V18.0506C300.071 18.4862 300.155 18.8163 300.324 19.0412C300.492 19.2519 300.836 19.3573 301.356 19.3573C301.961 19.3573 302.403 19.2167 302.684 18.9358C302.964 18.6407 303.105 18.2051 303.105 17.6291C303.105 17.0531 302.951 16.5754 302.641 16.1961C302.346 15.8167 301.841 15.627 301.124 15.627H299.207L299.186 15.2266H301.862C304.137 15.2266 305.275 15.8799 305.275 17.1866C305.275 17.9453 304.944 18.5705 304.285 19.0622C303.625 19.5539 302.768 19.7999 301.714 19.7999C301.405 19.7999 300.991 19.7858 300.471 19.7577C299.966 19.7297 299.517 19.7156 299.123 19.7156C298.729 19.7156 298.343 19.7225 297.964 19.7366C297.599 19.7507 297.262 19.7577 296.953 19.7577C296.911 19.7577 296.89 19.7156 296.89 19.6313C296.89 19.547 296.911 19.5048 296.953 19.5048C297.444 19.5048 297.76 19.4135 297.901 19.2308C298.042 19.0481 298.112 18.6548 298.112 18.0506V13.3299C298.112 12.7117 298.042 12.3183 297.901 12.1497C297.76 11.967 297.452 11.8757 296.974 11.8757C296.932 11.8757 296.911 11.8336 296.911 11.7493C296.911 11.665 296.932 11.6228 296.974 11.6228C297.269 11.6228 297.599 11.6298 297.964 11.6439C298.343 11.6439 298.729 11.6439 299.123 11.6439ZM310.796 20.0106C309.827 20.0106 309.027 19.8068 308.394 19.3994C307.762 18.9779 307.292 18.4441 306.983 17.7977C306.688 17.1514 306.54 16.4981 306.54 15.8378C306.54 15.1353 306.688 14.5101 306.983 13.9621C307.278 13.4142 307.665 12.9575 308.142 12.5922C308.634 12.2129 309.174 11.9249 309.764 11.7282C310.354 11.5315 310.937 11.4331 311.513 11.4331C311.921 11.4331 312.328 11.4964 312.735 11.6228C313.143 11.7352 313.48 11.9108 313.746 12.1497C314.013 12.3745 314.146 12.6625 314.146 13.0137C314.146 13.2525 314.049 13.4774 313.851 13.6881C313.655 13.8848 313.367 13.9832 312.987 13.9832C312.637 13.9832 312.363 13.8919 312.166 13.7092C311.97 13.5265 311.815 13.2597 311.702 12.9084C311.605 12.5712 311.492 12.3183 311.365 12.1497C311.253 11.967 311.028 11.8757 310.691 11.8757C310.088 11.8757 309.603 12.1778 309.237 12.7819C308.887 13.3861 308.71 14.1729 308.71 15.1423C308.71 15.8448 308.816 16.4911 309.027 17.0812C309.237 17.6572 309.582 18.1208 310.059 18.4721C310.537 18.8093 311.176 18.9779 311.976 18.9779C312.398 18.9779 312.749 18.9288 313.03 18.8304C313.325 18.732 313.648 18.5986 313.999 18.43C314.028 18.4019 314.062 18.4159 314.104 18.4721C314.161 18.5284 314.175 18.5705 314.146 18.5986C313.655 19.0481 313.149 19.3994 312.629 19.6523C312.11 19.8911 311.499 20.0106 310.796 20.0106Z" fill="#9F9892"/>
<path d="M7.42892 112.158C6.46276 112.158 5.68863 112.032 5.10653 111.78C4.52442 111.522 4.08335 111.096 3.78331 110.502C3.48925 109.907 3.29122 109.1 3.18921 108.08H4.9175C4.9655 108.806 5.07952 109.358 5.25955 109.736C5.44559 110.109 5.72163 110.364 6.0877 110.502C6.45375 110.634 6.93383 110.7 7.52794 110.7C8.30806 110.7 8.86916 110.502 9.21122 110.106C9.55928 109.709 9.73331 109.13 9.73331 108.368C9.73331 107.695 9.6583 107.17 9.50827 106.792C9.36425 106.408 9.06719 106.138 8.61713 105.982C8.17305 105.82 7.50093 105.739 6.60079 105.739V104.397C7.2969 104.397 7.83999 104.352 8.23005 104.262C8.62612 104.166 8.91417 104.025 9.0942 103.839C9.27423 103.647 9.38525 103.412 9.42726 103.136C9.47527 102.854 9.49927 102.53 9.49927 102.164C9.49927 101.552 9.34325 101.071 9.03119 100.723C8.71914 100.375 8.17604 100.201 7.40191 100.201C6.86782 100.201 6.42375 100.258 6.0697 100.372C5.71562 100.48 5.44859 100.714 5.26856 101.074C5.09453 101.435 5.0075 101.987 5.0075 102.731H3.27921C3.27921 101.627 3.45924 100.789 3.81931 100.219C4.18538 99.6426 4.68045 99.2525 5.30456 99.0484C5.92867 98.8443 6.62478 98.7422 7.39292 98.7422C8.14304 98.7422 8.80315 98.8623 9.37324 99.1024C9.94335 99.3365 10.3874 99.7027 10.7055 100.201C11.0295 100.699 11.1916 101.344 11.1916 102.137C11.1916 102.743 11.1105 103.256 10.9485 103.676C10.7925 104.097 10.5374 104.424 10.1834 104.658C9.83533 104.886 9.36725 105.027 8.77914 105.081L8.83316 105C9.38525 105.084 9.85633 105.243 10.2464 105.477C10.6365 105.712 10.9335 106.06 11.1375 106.522C11.3476 106.978 11.4526 107.596 11.4526 108.377C11.4526 109.205 11.2936 109.901 10.9755 110.466C10.6635 111.024 10.2074 111.447 9.60729 111.735C9.00719 112.017 8.28107 112.158 7.42892 112.158Z" fill="#9F9892"/>
<path d="M58.4031 111.96V108.8H52.6421V107.386L57.404 98.9403H59.2853L54.4604 107.755L54.2534 107.404H58.4031V104.424H59.9063V107.404H61.8147V108.8H59.9063V111.96H58.4031Z" fill="#9F9892"/>
<path d="M107.082 112.158C106.548 112.158 106.05 112.116 105.588 112.032C105.132 111.948 104.691 111.819 104.265 111.645C103.839 111.471 103.401 111.255 102.95 110.997L103.428 109.619C103.848 109.895 104.232 110.112 104.58 110.268C104.928 110.424 105.291 110.535 105.669 110.601C106.053 110.667 106.5 110.7 107.01 110.7C107.85 110.7 108.516 110.487 109.008 110.06C109.501 109.634 109.747 108.95 109.747 108.007C109.747 107.395 109.66 106.873 109.486 106.441C109.318 106.003 109.05 105.669 108.684 105.441C108.324 105.213 107.859 105.099 107.289 105.099C106.797 105.099 106.341 105.204 105.921 105.414C105.507 105.618 105.138 105.843 104.814 106.09L103.518 105.549L103.977 98.9403H110.611V100.426H105.426L105.129 104.811L104.877 104.721C105.153 104.421 105.522 104.187 105.984 104.019C106.452 103.845 106.959 103.758 107.505 103.758C108.375 103.758 109.101 103.92 109.684 104.244C110.266 104.568 110.704 105.039 110.998 105.657C111.298 106.276 111.448 107.029 111.448 107.918C111.448 108.896 111.259 109.7 110.881 110.331C110.503 110.955 109.984 111.417 109.324 111.717C108.669 112.011 107.922 112.158 107.082 112.158Z" fill="#9F9892"/>
<path d="M157.31 112.158C156.247 112.158 155.404 111.972 154.78 111.6C154.156 111.222 153.708 110.721 153.438 110.097C153.168 109.472 153.034 108.785 153.034 108.034C153.034 107.446 153.105 106.885 153.25 106.351C153.393 105.816 153.604 105.267 153.879 104.703C154.156 104.139 154.492 103.514 154.888 102.83L157.129 98.9403H158.929L155.275 105.135L155.085 104.82C155.488 104.526 155.864 104.325 156.211 104.217C156.566 104.109 157.009 104.055 157.544 104.055C158.443 104.055 159.194 104.22 159.794 104.55C160.4 104.88 160.856 105.336 161.162 105.919C161.468 106.501 161.621 107.176 161.621 107.945C161.621 108.701 161.48 109.4 161.198 110.042C160.922 110.679 160.469 111.192 159.839 111.582C159.208 111.966 158.366 112.158 157.31 112.158ZM157.382 110.7C158.084 110.7 158.617 110.58 158.983 110.34C159.356 110.094 159.607 109.775 159.74 109.385C159.872 108.989 159.938 108.569 159.938 108.125C159.938 107.686 159.869 107.269 159.731 106.873C159.598 106.477 159.347 106.153 158.975 105.901C158.603 105.648 158.06 105.522 157.345 105.522C156.643 105.522 156.101 105.648 155.716 105.901C155.338 106.153 155.078 106.477 154.933 106.873C154.789 107.269 154.717 107.686 154.717 108.125C154.717 108.569 154.789 108.989 154.933 109.385C155.083 109.775 155.35 110.094 155.735 110.34C156.118 110.58 156.667 110.7 157.382 110.7Z" fill="#9F9892"/>
<path d="M204.692 111.96L209.337 99.9578L209.598 100.426H203.072V98.9403H211.002V100.354L206.592 111.96H204.692Z" fill="#9F9892"/>
<path d="M257.116 112.158C256.035 112.158 255.171 111.999 254.523 111.681C253.875 111.357 253.406 110.922 253.119 110.376C252.836 109.829 252.695 109.217 252.695 108.539C252.695 107.716 252.96 107.002 253.488 106.396C254.016 105.789 254.715 105.318 255.586 104.982L255.64 105.225C255.177 105.003 254.739 104.751 254.326 104.469C253.917 104.187 253.584 103.845 253.326 103.442C253.073 103.034 252.948 102.542 252.948 101.966C252.948 101.408 253.086 100.885 253.362 100.399C253.643 99.9068 254.091 99.5076 254.703 99.2015C255.316 98.8954 256.119 98.7422 257.116 98.7422C258.196 98.7422 259.042 98.8983 259.655 99.2104C260.266 99.5226 260.695 99.9219 260.941 100.408C261.193 100.888 261.319 101.386 261.319 101.903C261.319 102.407 261.208 102.86 260.986 103.262C260.765 103.659 260.443 104.013 260.023 104.325C259.608 104.631 259.102 104.898 258.502 105.126L258.655 104.901C259.171 105.147 259.648 105.429 260.086 105.747C260.53 106.066 260.887 106.45 261.157 106.9C261.434 107.344 261.572 107.888 261.572 108.53C261.572 109.202 261.424 109.814 261.131 110.367C260.842 110.913 260.371 111.348 259.716 111.672C259.063 111.996 258.196 112.158 257.116 112.158ZM257.187 110.7C257.919 110.7 258.475 110.604 258.853 110.412C259.237 110.22 259.498 109.955 259.636 109.619C259.78 109.283 259.852 108.905 259.852 108.485C259.852 107.98 259.702 107.56 259.402 107.224C259.108 106.882 258.718 106.585 258.231 106.333C257.745 106.075 257.221 105.825 256.656 105.585L257.358 105.675C256.398 106.006 255.666 106.399 255.162 106.855C254.664 107.305 254.415 107.849 254.415 108.485C254.415 108.905 254.493 109.283 254.649 109.619C254.805 109.955 255.084 110.22 255.486 110.412C255.889 110.604 256.455 110.7 257.187 110.7ZM256.881 104.397C257.308 104.265 257.731 104.085 258.151 103.857C258.576 103.622 258.93 103.346 259.213 103.028C259.495 102.71 259.636 102.356 259.636 101.966C259.636 101.684 259.582 101.408 259.474 101.137C259.371 100.867 259.146 100.645 258.799 100.471C258.456 100.291 257.919 100.201 257.187 100.201C256.539 100.201 256.029 100.285 255.657 100.453C255.285 100.615 255.021 100.828 254.865 101.092C254.709 101.35 254.631 101.627 254.631 101.921C254.631 102.335 254.772 102.692 255.054 102.992C255.342 103.292 255.717 103.56 256.18 103.794C256.647 104.028 257.149 104.259 257.682 104.487L256.881 104.397Z" fill="#9F9892"/>
<path d="M305.606 111.96L309.26 105.766L309.449 106.081C309.048 106.375 308.67 106.576 308.316 106.684C307.967 106.792 307.525 106.846 306.992 106.846C306.091 106.846 305.338 106.681 304.732 106.351C304.127 106.021 303.67 105.564 303.364 104.982C303.058 104.394 302.905 103.718 302.905 102.956C302.905 102.194 303.043 101.495 303.32 100.858C303.601 100.222 304.057 99.7116 304.688 99.3275C305.324 98.9374 306.169 98.7422 307.225 98.7422C308.288 98.7422 309.131 98.9313 309.755 99.3095C310.379 99.6817 310.827 100.18 311.097 100.804C311.367 101.428 311.502 102.116 311.502 102.866C311.502 103.454 311.43 104.016 311.285 104.55C311.141 105.084 310.932 105.633 310.655 106.198C310.379 106.762 310.043 107.386 309.647 108.071L307.406 111.96H305.606ZM307.19 105.378C307.898 105.378 308.441 105.252 308.819 105C309.198 104.748 309.458 104.424 309.602 104.028C309.747 103.626 309.818 103.208 309.818 102.776C309.818 102.326 309.743 101.906 309.593 101.516C309.449 101.125 309.185 100.81 308.801 100.57C308.417 100.324 307.868 100.201 307.154 100.201C306.446 100.201 305.908 100.324 305.542 100.57C305.176 100.81 304.925 101.125 304.786 101.516C304.655 101.906 304.589 102.326 304.589 102.776C304.589 103.208 304.655 103.626 304.786 104.028C304.925 104.424 305.179 104.748 305.552 105C305.929 105.252 306.476 105.378 307.19 105.378Z" fill="#9F9892"/>
<path d="M3.17114 155.348H6.78075V144.841L7.18582 145.201L3.41418 145.606L3.25216 144.175L7.11381 143.724H8.59007V155.348H11.7766V156.744H3.17114V155.348ZM18.1947 156.942C17.3246 156.942 16.6074 156.826 16.0433 156.592C15.4853 156.357 15.0441 156.04 14.7201 155.637C14.4021 155.235 14.168 154.778 14.018 154.268C13.868 153.758 13.772 153.224 13.73 152.665C13.6939 152.107 13.6759 151.557 13.6759 151.017V149.632C13.6759 149.078 13.6939 148.517 13.73 147.947C13.772 147.371 13.865 146.822 14.009 146.299C14.159 145.771 14.393 145.301 14.7111 144.886C15.0352 144.466 15.4792 144.135 16.0433 143.895C16.6074 143.649 17.3246 143.527 18.1947 143.527C19.0648 143.527 19.782 143.649 20.3461 143.895C20.9102 144.135 21.3512 144.466 21.6693 144.886C21.9933 145.301 22.2274 145.771 22.3714 146.299C22.5214 146.822 22.6144 147.371 22.6505 147.947C22.6925 148.517 22.7134 149.078 22.7134 149.632V151.017C22.7134 151.557 22.6925 152.107 22.6505 152.665C22.6144 153.224 22.5214 153.758 22.3714 154.268C22.2213 154.778 21.9843 155.235 21.6602 155.637C21.3422 156.04 20.9011 156.357 20.337 156.592C19.7789 156.826 19.0648 156.942 18.1947 156.942ZM18.1947 155.484C18.8368 155.484 19.3408 155.369 19.7069 155.141C20.073 154.907 20.34 154.592 20.508 154.196C20.6761 153.794 20.7812 153.334 20.8232 152.819C20.8711 152.296 20.8952 151.747 20.8952 151.171V149.397C20.8952 148.82 20.8711 148.268 20.8232 147.74C20.7812 147.205 20.673 146.735 20.4991 146.327C20.3311 145.912 20.064 145.585 19.698 145.346C19.3378 145.105 18.8368 144.985 18.1947 144.985C17.5586 144.985 17.0575 145.105 16.6915 145.346C16.3254 145.585 16.0553 145.912 15.8812 146.327C15.7132 146.735 15.6052 147.205 15.5573 147.74C15.5153 148.268 15.4942 148.82 15.4942 149.397V151.171C15.4942 151.747 15.5153 152.296 15.5573 152.819C15.6052 153.334 15.7132 153.794 15.8812 154.196C16.0494 154.592 16.3164 154.907 16.6824 155.141C17.0484 155.369 17.5526 155.484 18.1947 155.484Z" fill="#9F9892"/>
<path d="M51.8926 155.348H55.5022V144.841L55.9072 145.201L52.1357 145.606L51.9736 144.175L55.8352 143.724H57.3114V155.348H60.4981V156.745H51.8926V155.348ZM63.1444 155.348H66.754V144.841L67.1592 145.201L63.3875 145.606L63.2254 144.175L67.0872 143.724H68.5635V155.348H71.75V156.745H63.1444V155.348Z" fill="#9F9892"/>
<path d="M100.614 155.348H104.223V144.841L104.628 145.201L100.857 145.606L100.695 144.175L104.556 143.724H106.033V155.348H109.219V156.744H100.614V155.348ZM112.091 156.744L111.92 155.322L116.321 150.541C116.76 150.066 117.114 149.661 117.384 149.325C117.654 148.982 117.849 148.653 117.969 148.334C118.095 148.01 118.158 147.641 118.158 147.227C118.158 146.393 117.978 145.811 117.618 145.48C117.258 145.151 116.684 144.985 115.898 144.985C115.268 144.985 114.761 145.051 114.377 145.184C113.999 145.309 113.723 145.555 113.549 145.921C113.381 146.282 113.297 146.816 113.297 147.524H111.488C111.488 146.09 111.872 145.066 112.64 144.454C113.408 143.836 114.449 143.527 115.763 143.527C116.699 143.527 117.471 143.691 118.077 144.022C118.683 144.346 119.133 144.787 119.427 145.346C119.721 145.898 119.868 146.519 119.868 147.209C119.868 147.785 119.796 148.29 119.652 148.722C119.514 149.148 119.283 149.574 118.959 150.001C118.635 150.426 118.197 150.93 117.645 151.513L113.747 155.637L113.576 155.34H119.796V156.744H112.091Z" fill="#9F9892"/>
<path d="M149.335 155.348H152.944V144.841L153.35 145.201L149.579 145.606L149.417 144.175L153.277 143.724H154.754V155.348H157.94V156.744H149.335V155.348ZM164.845 156.942C163.879 156.942 163.105 156.817 162.523 156.564C161.941 156.306 161.5 155.88 161.199 155.286C160.906 154.691 160.707 153.884 160.605 152.864H162.333C162.382 153.59 162.495 154.142 162.675 154.521C162.861 154.893 163.138 155.148 163.504 155.286C163.87 155.418 164.35 155.484 164.944 155.484C165.724 155.484 166.285 155.286 166.627 154.89C166.975 154.493 167.15 153.914 167.15 153.151C167.15 152.479 167.075 151.954 166.925 151.576C166.78 151.193 166.484 150.921 166.033 150.766C165.589 150.604 164.917 150.522 164.017 150.522V149.181C164.712 149.181 165.256 149.136 165.646 149.046C166.042 148.949 166.33 148.808 166.51 148.623C166.69 148.43 166.801 148.196 166.843 147.921C166.892 147.639 166.915 147.313 166.915 146.947C166.915 146.336 166.759 145.855 166.447 145.508C166.135 145.159 165.592 144.985 164.818 144.985C164.283 144.985 163.839 145.043 163.485 145.156C163.131 145.264 162.865 145.498 162.685 145.858C162.511 146.219 162.424 146.771 162.424 147.515H160.695C160.695 146.411 160.875 145.573 161.235 145.003C161.601 144.426 162.096 144.036 162.72 143.832C163.344 143.628 164.041 143.527 164.809 143.527C165.559 143.527 166.219 143.646 166.789 143.886C167.359 144.121 167.803 144.487 168.122 144.985C168.446 145.484 168.608 146.128 168.608 146.921C168.608 147.527 168.526 148.041 168.364 148.461C168.209 148.881 167.953 149.208 167.599 149.442C167.251 149.67 166.784 149.811 166.195 149.865L166.249 149.785C166.801 149.869 167.272 150.027 167.662 150.261C168.052 150.496 168.349 150.844 168.554 151.306C168.763 151.762 168.868 152.381 168.868 153.16C168.868 153.989 168.709 154.686 168.392 155.249C168.08 155.808 167.624 156.231 167.023 156.519C166.423 156.801 165.697 156.942 164.845 156.942Z" fill="#9F9892"/>
<path fill-rule="evenodd" clip-rule="evenodd" d="M208 142.384C206.132 139.519 202.875 135 197.424 135C191.918 135 189 139.863 189 144.292C189 150.12 192.07 155.128 195.938 159.241C199.812 163.36 204.569 166.639 208 169C211.431 166.639 216.188 163.36 220.062 159.241C223.93 155.128 227 150.12 227 144.292C227 139.863 224.082 135 218.576 135C213.125 135 209.868 139.519 208 142.384Z" fill="#CA89A4"/>
<path d="M198.056 155.348H201.666V144.841L202.071 145.201L198.3 145.606L198.138 144.175L201.999 143.724H203.475V155.348H206.662V156.745H198.056V155.348ZM214.502 156.745V153.585H208.741V152.17L213.504 143.724H215.384L210.559 152.54L210.353 152.188H214.502V149.208H216.006V152.188H217.914V153.585H216.006V156.745H214.502Z" fill="#FAE7E0"/>
<path d="M246.778 155.348H250.387V144.841L250.793 145.201L247.021 145.606L246.859 144.175L250.72 143.724H252.196V155.348H255.383V156.745H246.778V155.348ZM261.864 156.942C261.331 156.942 260.832 156.9 260.37 156.817C259.914 156.733 259.473 156.604 259.048 156.43C258.621 156.256 258.183 156.04 257.734 155.782L258.21 154.404C258.63 154.679 259.015 154.895 259.362 155.052C259.71 155.207 260.074 155.319 260.451 155.385C260.836 155.451 261.282 155.484 261.793 155.484C262.633 155.484 263.298 155.271 263.791 154.845C264.283 154.418 264.53 153.735 264.53 152.792C264.53 152.179 264.443 151.658 264.267 151.226C264.1 150.787 263.833 150.454 263.467 150.226C263.107 149.998 262.641 149.883 262.071 149.883C261.58 149.883 261.123 149.989 260.703 150.198C260.289 150.402 259.921 150.628 259.597 150.874L258.3 150.334L258.759 143.724H265.393V145.21H260.208L259.912 149.595L259.659 149.505C259.935 149.205 260.304 148.971 260.766 148.803C261.235 148.629 261.742 148.541 262.288 148.541C263.157 148.541 263.884 148.704 264.466 149.028C265.048 149.352 265.487 149.823 265.78 150.442C266.081 151.06 266.231 151.813 266.231 152.702C266.231 153.681 266.041 154.484 265.663 155.115C265.285 155.739 264.767 156.202 264.106 156.501C263.452 156.796 262.704 156.942 261.864 156.942Z" fill="#9F9892"/>
<path d="M295.499 155.348H299.108V144.841L299.514 145.201L295.743 145.606L295.581 144.175L299.441 143.724H300.918V155.348H304.104V156.745H295.499V155.348ZM310.775 156.942C309.712 156.942 308.87 156.756 308.246 156.385C307.621 156.006 307.174 155.505 306.904 154.881C306.634 154.256 306.5 153.569 306.5 152.819C306.5 152.231 306.571 151.669 306.715 151.135C306.859 150.601 307.07 150.052 307.345 149.487C307.621 148.923 307.957 148.299 308.354 147.614L310.595 143.724H312.395L308.741 149.919L308.551 149.604C308.954 149.31 309.328 149.109 309.677 149.001C310.031 148.893 310.475 148.839 311.01 148.839C311.909 148.839 312.659 149.003 313.26 149.334C313.866 149.665 314.321 150.12 314.628 150.703C314.934 151.285 315.086 151.96 315.086 152.728C315.086 153.484 314.945 154.184 314.664 154.827C314.387 155.463 313.934 155.977 313.305 156.366C312.674 156.751 311.831 156.942 310.775 156.942ZM310.846 155.484C311.549 155.484 312.083 155.364 312.449 155.124C312.821 154.878 313.073 154.559 313.205 154.169C313.338 153.773 313.403 153.353 313.403 152.909C313.403 152.47 313.334 152.053 313.197 151.658C313.064 151.261 312.812 150.937 312.44 150.684C312.068 150.433 311.524 150.306 310.811 150.306C310.109 150.306 309.565 150.433 309.182 150.684C308.804 150.937 308.542 151.261 308.398 151.658C308.255 152.053 308.182 152.47 308.182 152.909C308.182 153.353 308.255 153.773 308.398 154.169C308.548 154.559 308.816 154.878 309.199 155.124C309.583 155.364 310.133 155.484 310.846 155.484Z" fill="#9F9892"/>
<path d="M3.17114 200.132H6.78075V189.625L7.18582 189.985L3.41418 190.391L3.25216 188.959L7.11381 188.508H8.59007V200.132H11.7766V201.529H3.17114V200.132ZM15.7913 201.529L20.436 189.526L20.6971 189.994H14.171V188.508H22.1014V189.922L17.6906 201.529H15.7913Z" fill="#9F9892"/>
<path d="M51.8926 200.132H55.5022V189.625L55.9072 189.985L52.1357 190.391L51.9736 188.959L55.8352 188.508H57.3114V200.132H60.4981V201.529H51.8926V200.132ZM66.8981 201.726C65.8179 201.726 64.9537 201.568 64.3057 201.249C63.6576 200.925 63.1895 200.491 62.9015 199.944C62.6194 199.397 62.4784 198.785 62.4784 198.107C62.4784 197.285 62.7424 196.571 63.2705 195.964C63.7986 195.358 64.4977 194.886 65.3679 194.55L65.4218 194.794C64.9598 194.571 64.5217 194.32 64.1077 194.037C63.6996 193.755 63.3665 193.413 63.1085 193.01C62.8565 192.602 62.7304 192.111 62.7304 191.534C62.7304 190.975 62.8684 190.454 63.1444 189.968C63.4265 189.475 63.8736 189.076 64.4857 188.769C65.0978 188.464 65.9019 188.311 66.8981 188.311C67.9783 188.311 68.8244 188.466 69.4365 188.778C70.0487 189.091 70.4777 189.49 70.7238 189.976C70.9758 190.456 71.1018 190.954 71.1018 191.471C71.1018 191.975 70.9908 192.428 70.7688 192.83C70.5467 193.226 70.2256 193.581 69.8056 193.893C69.3916 194.2 68.8845 194.466 68.2843 194.695L68.4374 194.47C68.9535 194.715 69.4306 194.998 69.8687 195.316C70.3127 195.634 70.6698 196.018 70.9397 196.468C71.2159 196.912 71.3539 197.456 71.3539 198.099C71.3539 198.77 71.2068 199.383 70.9127 199.935C70.6248 200.481 70.1536 200.916 69.4996 201.24C68.8455 201.564 67.9783 201.726 66.8981 201.726ZM66.9701 200.268C67.7023 200.268 68.2573 200.172 68.6354 199.98C69.0195 199.787 69.2806 199.524 69.4186 199.188C69.5625 198.851 69.6345 198.473 69.6345 198.053C69.6345 197.549 69.4846 197.129 69.1845 196.792C68.8904 196.451 68.5004 196.153 68.0144 195.902C67.5282 195.643 67.0032 195.393 66.4391 195.153L67.1412 195.244C66.181 195.574 65.4488 195.967 64.9448 196.423C64.4468 196.874 64.1976 197.416 64.1976 198.053C64.1976 198.473 64.2757 198.851 64.4317 199.188C64.5878 199.524 64.8668 199.787 65.2688 199.98C65.6708 200.172 66.238 200.268 66.9701 200.268ZM66.6641 193.965C67.0901 193.834 67.5132 193.653 67.9332 193.425C68.3594 193.191 68.7134 192.914 68.9955 192.597C69.2775 192.278 69.4186 191.924 69.4186 191.534C69.4186 191.252 69.3646 190.975 69.2565 190.705C69.1546 190.435 68.9295 190.214 68.5814 190.039C68.2394 189.86 67.7023 189.769 66.9701 189.769C66.322 189.769 65.8119 189.853 65.4399 190.022C65.0678 190.184 64.8037 190.397 64.6477 190.661C64.4917 190.919 64.4137 191.195 64.4137 191.489C64.4137 191.903 64.5547 192.261 64.8368 192.56C65.1248 192.86 65.4999 193.128 65.962 193.362C66.43 193.597 66.9312 193.827 67.4652 194.055L66.6641 193.965Z" fill="#9F9892"/>
<path d="M100.614 200.132H104.223V189.625L104.628 189.985L100.857 190.391L100.695 188.959L104.556 188.508H106.033V200.132H109.219V201.529H100.614V200.132ZM114.071 201.529L117.726 195.334L117.915 195.649C117.513 195.942 117.135 196.144 116.78 196.252C116.432 196.36 115.991 196.414 115.457 196.414C114.557 196.414 113.804 196.249 113.198 195.919C112.592 195.589 112.136 195.132 111.83 194.55C111.524 193.963 111.371 193.287 111.371 192.524C111.371 191.762 111.509 191.062 111.785 190.426C112.067 189.79 112.523 189.28 113.153 188.896C113.789 188.506 114.635 188.311 115.691 188.311C116.753 188.311 117.597 188.499 118.221 188.878C118.845 189.25 119.292 189.748 119.562 190.372C119.832 190.996 119.967 191.684 119.967 192.435C119.967 193.022 119.895 193.583 119.751 194.118C119.607 194.653 119.397 195.202 119.121 195.766C118.845 196.33 118.509 196.954 118.113 197.639L115.871 201.529H114.071ZM115.655 194.947C116.363 194.947 116.906 194.82 117.285 194.569C117.663 194.316 117.924 193.992 118.068 193.597C118.212 193.194 118.284 192.776 118.284 192.344C118.284 191.895 118.209 191.475 118.059 191.083C117.915 190.694 117.651 190.379 117.267 190.139C116.882 189.893 116.333 189.769 115.619 189.769C114.911 189.769 114.374 189.893 114.008 190.139C113.642 190.379 113.39 190.694 113.252 191.083C113.12 191.475 113.054 191.895 113.054 192.344C113.054 192.776 113.12 193.194 113.252 193.597C113.39 193.992 113.645 194.316 114.017 194.569C114.395 194.82 114.941 194.947 115.655 194.947Z" fill="#9F9892"/>
<path d="M149.56 201.529L149.389 200.106L153.791 195.325C154.229 194.851 154.584 194.445 154.854 194.109C155.124 193.767 155.318 193.437 155.438 193.118C155.565 192.794 155.628 192.426 155.628 192.011C155.628 191.177 155.448 190.595 155.087 190.264C154.727 189.935 154.154 189.769 153.368 189.769C152.738 189.769 152.231 189.835 151.846 189.968C151.468 190.093 151.193 190.339 151.019 190.705C150.851 191.066 150.766 191.6 150.766 192.308H148.957C148.957 190.874 149.342 189.851 150.109 189.238C150.877 188.62 151.918 188.311 153.233 188.311C154.169 188.311 154.941 188.475 155.546 188.806C156.152 189.13 156.602 189.571 156.896 190.13C157.191 190.682 157.337 191.303 157.337 191.994C157.337 192.569 157.266 193.074 157.121 193.506C156.983 193.932 156.752 194.358 156.429 194.785C156.105 195.21 155.666 195.715 155.114 196.297L151.217 200.421L151.045 200.125H157.266V201.529H149.56ZM164.358 201.726C163.489 201.726 162.772 201.61 162.208 201.376C161.65 201.141 161.208 200.824 160.885 200.421C160.566 200.019 160.331 199.562 160.183 199.052C160.033 198.543 159.936 198.008 159.894 197.449C159.857 196.891 159.84 196.342 159.84 195.802V194.416C159.84 193.863 159.857 193.302 159.894 192.731C159.936 192.156 160.029 191.606 160.173 191.083C160.324 190.555 160.557 190.085 160.875 189.67C161.199 189.25 161.643 188.919 162.208 188.68C162.772 188.433 163.489 188.311 164.358 188.311C165.229 188.311 165.946 188.433 166.51 188.68C167.075 188.919 167.516 189.25 167.833 189.67C168.157 190.085 168.392 190.555 168.535 191.083C168.685 191.606 168.779 192.156 168.814 192.731C168.856 193.302 168.877 193.863 168.877 194.416V195.802C168.877 196.342 168.856 196.891 168.814 197.449C168.779 198.008 168.685 198.543 168.535 199.052C168.385 199.562 168.148 200.019 167.824 200.421C167.507 200.824 167.066 201.141 166.501 201.376C165.944 201.61 165.229 201.726 164.358 201.726ZM164.358 200.268C165.001 200.268 165.505 200.154 165.871 199.926C166.237 199.691 166.505 199.376 166.672 198.98C166.84 198.578 166.946 198.118 166.987 197.603C167.035 197.081 167.059 196.531 167.059 195.956V194.181C167.059 193.604 167.035 193.053 166.987 192.524C166.946 191.99 166.838 191.519 166.663 191.111C166.495 190.696 166.228 190.369 165.862 190.13C165.503 189.889 165.001 189.769 164.358 189.769C163.722 189.769 163.222 189.889 162.856 190.13C162.49 190.369 162.22 190.696 162.046 191.111C161.877 191.519 161.769 191.99 161.721 192.524C161.68 193.053 161.659 193.604 161.659 194.181V195.956C161.659 196.531 161.68 197.081 161.721 197.603C161.769 198.118 161.877 198.578 162.046 198.98C162.213 199.376 162.481 199.691 162.847 199.926C163.213 200.154 163.717 200.268 164.358 200.268Z" fill="#9F9892"/>
<path d="M198.282 201.529L198.11 200.106L202.512 195.325C202.951 194.851 203.305 194.445 203.575 194.109C203.845 193.767 204.04 193.437 204.16 193.118C204.286 192.794 204.349 192.426 204.349 192.011C204.349 191.177 204.169 190.595 203.808 190.264C203.449 189.935 202.876 189.769 202.09 189.769C201.459 189.769 200.952 189.835 200.568 189.968C200.19 190.093 199.914 190.339 199.741 190.705C199.572 191.066 199.488 191.6 199.488 192.308H197.678C197.678 190.874 198.063 189.851 198.831 189.238C199.598 188.62 200.64 188.311 201.954 188.311C202.89 188.311 203.662 188.475 204.268 188.806C204.873 189.13 205.324 189.571 205.617 190.13C205.912 190.682 206.059 191.303 206.059 191.994C206.059 192.569 205.987 193.074 205.843 193.506C205.704 193.932 205.474 194.358 205.15 194.785C204.826 195.21 204.388 195.715 203.836 196.297L199.938 200.421L199.767 200.125H205.987V201.529H198.282ZM209.308 200.132H212.918V189.625L213.323 189.985L209.552 190.391L209.39 188.959L213.251 188.508H214.727V200.132H217.914V201.529H209.308V200.132Z" fill="#9F9892"/>
<path d="M247.003 201.529L246.832 200.106L251.234 195.325C251.672 194.851 252.027 194.445 252.297 194.109C252.566 193.767 252.761 193.437 252.881 193.118C253.008 192.794 253.071 192.426 253.071 192.011C253.071 191.177 252.89 190.595 252.53 190.264C252.17 189.935 251.597 189.769 250.811 189.769C250.18 189.769 249.673 189.835 249.289 189.968C248.911 190.093 248.636 190.339 248.462 190.705C248.293 191.066 248.209 191.6 248.209 192.308H246.4C246.4 190.874 246.784 189.851 247.552 189.238C248.32 188.62 249.361 188.311 250.676 188.311C251.612 188.311 252.383 188.475 252.989 188.806C253.595 189.13 254.045 189.571 254.339 190.13C254.634 190.682 254.78 191.303 254.78 191.994C254.78 192.569 254.709 193.074 254.564 193.506C254.426 193.932 254.195 194.358 253.871 194.785C253.547 195.21 253.109 195.715 252.557 196.297L248.66 200.421L248.488 200.125H254.709V201.529H247.003ZM258.255 201.529L258.084 200.106L262.486 195.325C262.924 194.851 263.277 194.445 263.549 194.109C263.818 193.767 264.013 193.437 264.133 193.118C264.26 192.794 264.321 192.426 264.321 192.011C264.321 191.177 264.142 190.595 263.782 190.264C263.422 189.935 262.849 189.769 262.063 189.769C261.432 189.769 260.925 189.835 260.541 189.968C260.163 190.093 259.888 190.339 259.713 190.705C259.545 191.066 259.461 191.6 259.461 192.308H257.652C257.652 190.874 258.036 189.851 258.804 189.238C259.572 188.62 260.613 188.311 261.928 188.311C262.864 188.311 263.635 188.475 264.241 188.806C264.847 189.13 265.297 189.571 265.591 190.13C265.886 190.682 266.032 191.303 266.032 191.994C266.032 192.569 265.961 193.074 265.816 193.506C265.678 193.932 265.447 194.358 265.123 194.785C264.799 195.21 264.361 195.715 263.809 196.297L259.912 200.421L259.74 200.125H265.961V201.529H258.255Z" fill="#9F9892"/>
<path d="M295.724 201.529L295.553 200.106L299.955 195.325C300.394 194.851 300.748 194.445 301.018 194.109C301.288 193.767 301.483 193.437 301.602 193.118C301.729 192.794 301.792 192.426 301.792 192.011C301.792 191.177 301.612 190.595 301.251 190.264C300.891 189.935 300.318 189.769 299.532 189.769C298.902 189.769 298.395 189.835 298.01 189.968C297.632 190.093 297.357 190.339 297.183 190.705C297.015 191.066 296.93 191.6 296.93 192.308H295.121C295.121 190.874 295.506 189.851 296.273 189.238C297.041 188.62 298.083 188.311 299.397 188.311C300.333 188.311 301.105 188.475 301.71 188.806C302.316 189.13 302.766 189.571 303.06 190.13C303.355 190.682 303.501 191.303 303.501 191.994C303.501 192.569 303.43 193.074 303.285 193.506C303.147 193.932 302.917 194.358 302.593 194.785C302.269 195.21 301.83 195.715 301.278 196.297L297.381 200.421L297.21 200.125H303.43V201.529H295.724ZM311.01 201.726C310.043 201.726 309.269 201.601 308.687 201.348C308.105 201.09 307.664 200.665 307.363 200.071C307.07 199.475 306.871 198.668 306.769 197.648H308.497C308.546 198.374 308.659 198.926 308.839 199.305C309.025 199.677 309.302 199.932 309.668 200.071C310.034 200.202 310.514 200.268 311.108 200.268C311.888 200.268 312.449 200.071 312.791 199.674C313.139 199.278 313.314 198.698 313.314 197.935C313.314 197.264 313.239 196.738 313.089 196.36C312.944 195.977 312.648 195.705 312.197 195.55C311.754 195.388 311.081 195.306 310.181 195.306V193.965C310.877 193.965 311.42 193.921 311.81 193.83C312.206 193.734 312.494 193.593 312.674 193.407C312.854 193.215 312.965 192.98 313.007 192.705C313.056 192.423 313.08 192.098 313.08 191.731C313.08 191.12 312.923 190.64 312.611 190.292C312.299 189.943 311.756 189.769 310.982 189.769C310.447 189.769 310.004 189.827 309.649 189.94C309.295 190.048 309.029 190.283 308.849 190.642C308.675 191.003 308.588 191.555 308.588 192.299H306.859C306.859 191.195 307.039 190.358 307.399 189.787C307.765 189.21 308.26 188.82 308.884 188.616C309.508 188.412 310.205 188.311 310.973 188.311C311.723 188.311 312.383 188.431 312.953 188.67C313.523 188.905 313.967 189.271 314.286 189.769C314.61 190.268 314.772 190.912 314.772 191.705C314.772 192.311 314.69 192.825 314.528 193.245C314.373 193.665 314.117 193.992 313.763 194.226C313.415 194.454 312.948 194.595 312.359 194.649L312.413 194.569C312.965 194.653 313.436 194.811 313.826 195.045C314.216 195.28 314.514 195.628 314.718 196.09C314.927 196.546 315.032 197.165 315.032 197.945C315.032 198.773 314.873 199.47 314.556 200.034C314.244 200.592 313.788 201.015 313.188 201.303C312.587 201.585 311.861 201.726 311.01 201.726Z" fill="#9F9892"/>
<path d="M2.70459 246.313V245.134L7.13006 240.288C7.64943 239.72 8.07714 239.228 8.41318 238.809C8.74924 238.385 8.99801 237.987 9.1595 237.617C9.32534 237.241 9.40827 236.848 9.40827 236.438C9.40827 235.966 9.29479 235.558 9.06784 235.213C8.84526 234.868 8.53975 234.602 8.15132 234.415C7.7629 234.226 7.32646 234.133 6.84201 234.133C6.32701 234.133 5.87748 234.239 5.49343 234.453C5.11372 234.664 4.81912 234.957 4.60963 235.338C4.4045 235.717 4.30195 236.163 4.30195 236.674H2.75696C2.75696 235.887 2.93808 235.198 3.30032 234.604C3.66257 234.01 4.15574 233.548 4.77984 233.216C5.40831 232.884 6.11316 232.718 6.89439 232.718C7.67998 232.718 8.37609 232.884 8.98273 233.216C9.58938 233.548 10.0651 233.994 10.4099 234.558C10.7547 235.122 10.9271 235.748 10.9271 236.438C10.9271 236.93 10.8376 237.414 10.6587 237.885C10.4841 238.352 10.1786 238.873 9.74214 239.45C9.31006 240.022 8.70996 240.72 7.94183 241.546L4.93042 244.768V244.872H11.1627V246.313H2.70459ZM13.2643 243.562V242.227L19.1561 232.901H20.125V234.971H19.4703L15.0186 242.017V242.121H22.9531V243.562H13.2643ZM19.5751 246.313V243.157V242.534V232.901H21.1201V246.313H19.5751Z" fill="#9F9892"/>
<path d="M52.1175 246.313L51.9464 244.89L56.3482 240.109C56.7863 239.635 57.1404 239.229 57.4103 238.893C57.6804 238.551 57.8754 238.221 57.9955 237.903C58.1215 237.579 58.1845 237.21 58.1845 236.795C58.1845 235.961 58.0045 235.379 57.6445 235.048C57.2843 234.719 56.7113 234.553 55.9251 234.553C55.295 234.553 54.788 234.619 54.4038 234.752C54.0258 234.877 53.7498 235.123 53.5757 235.489C53.4077 235.85 53.3237 236.384 53.3237 237.092H51.5144C51.5144 235.658 51.8985 234.635 52.6666 234.022C53.4347 233.404 54.4759 233.095 55.7902 233.095C56.7263 233.095 57.4974 233.26 58.1035 233.59C58.7096 233.914 59.1597 234.355 59.4537 234.914C59.7478 235.466 59.8949 236.087 59.8949 236.778C59.8949 237.353 59.8228 237.858 59.6788 238.29C59.5408 238.717 59.3097 239.142 58.9856 239.569C58.6616 239.994 58.2235 240.499 57.6715 241.081L53.7738 245.205L53.6027 244.909H59.8228V246.313H52.1175ZM66.979 246.51C66.4449 246.51 65.9469 246.468 65.4848 246.385C65.0287 246.301 64.5877 246.172 64.1616 245.998C63.7354 245.824 63.2973 245.608 62.8473 245.35L63.3243 243.972C63.7445 244.247 64.1285 244.463 64.4765 244.62C64.8247 244.776 65.1877 244.888 65.5658 244.953C65.9499 245.019 66.3969 245.052 66.9069 245.052C67.7472 245.052 68.4132 244.839 68.9053 244.413C69.3974 243.987 69.6435 243.303 69.6435 242.36C69.6435 241.747 69.5565 241.226 69.3824 240.794C69.2143 240.355 68.9473 240.022 68.5812 239.794C68.2212 239.566 67.7561 239.452 67.1861 239.452C66.694 239.452 66.2379 239.557 65.8178 239.766C65.4037 239.971 65.0347 240.196 64.7107 240.442L63.4144 239.902L63.8734 233.292H70.5076V234.778H65.3227L65.0256 239.163L64.7736 239.074C65.0497 238.773 65.4187 238.539 65.8808 238.371C66.3489 238.198 66.856 238.109 67.402 238.109C68.2722 238.109 68.9984 238.273 69.5804 238.597C70.1626 238.921 70.6007 239.391 70.8947 240.01C71.1947 240.628 71.3448 241.381 71.3448 242.27C71.3448 243.249 71.1557 244.052 70.7776 244.683C70.3996 245.308 69.8805 245.77 69.2204 246.069C68.5662 246.364 67.8192 246.51 66.979 246.51Z" fill="#9F9892"/>
<path d="M100.839 246.313L100.668 244.89L105.07 240.109C105.508 239.635 105.862 239.229 106.132 238.893C106.402 238.551 106.597 238.221 106.717 237.903C106.843 237.579 106.906 237.21 106.906 236.795C106.906 235.961 106.726 235.379 106.366 235.048C106.006 234.719 105.433 234.553 104.647 234.553C104.016 234.553 103.509 234.619 103.125 234.752C102.747 234.877 102.471 235.123 102.297 235.489C102.129 235.85 102.045 236.384 102.045 237.092H100.236C100.236 235.658 100.62 234.635 101.388 234.022C102.156 233.404 103.197 233.095 104.512 233.095C105.448 233.095 106.219 233.26 106.825 233.59C107.431 233.914 107.881 234.355 108.175 234.914C108.469 235.466 108.616 236.087 108.616 236.778C108.616 237.353 108.544 237.858 108.4 238.29C108.262 238.717 108.031 239.142 107.707 239.569C107.383 239.994 106.945 240.499 106.393 241.081L102.495 245.205L102.324 244.909H108.544V246.313H100.839ZM115.889 246.51C114.827 246.51 113.984 246.325 113.36 245.953C112.736 245.574 112.289 245.073 112.019 244.449C111.749 243.825 111.614 243.137 111.614 242.388C111.614 241.799 111.686 241.238 111.83 240.703C111.974 240.169 112.184 239.62 112.46 239.055C112.736 238.491 113.072 237.867 113.468 237.182L115.709 233.292H117.51L113.855 239.487L113.666 239.172C114.068 238.879 114.443 238.677 114.791 238.569C115.145 238.461 115.589 238.407 116.123 238.407C117.024 238.407 117.774 238.572 118.374 238.902C118.98 239.233 119.436 239.689 119.742 240.271C120.048 240.853 120.201 241.529 120.201 242.297C120.201 243.053 120.06 243.752 119.778 244.395C119.502 245.031 119.049 245.545 118.419 245.935C117.789 246.319 116.946 246.51 115.889 246.51ZM115.962 245.052C116.664 245.052 117.198 244.932 117.564 244.693C117.936 244.446 118.188 244.128 118.32 243.738C118.452 243.341 118.518 242.921 118.518 242.477C118.518 242.039 118.449 241.621 118.311 241.226C118.179 240.829 117.927 240.505 117.555 240.252C117.183 240.001 116.64 239.874 115.925 239.874C115.223 239.874 114.68 240.001 114.296 240.252C113.918 240.505 113.657 240.829 113.513 241.226C113.369 241.621 113.297 242.039 113.297 242.477C113.297 242.921 113.369 243.341 113.513 243.738C113.663 244.128 113.93 244.446 114.314 244.693C114.698 244.932 115.247 245.052 115.962 245.052Z" fill="#9F9892"/>
<path d="M149.56 246.313L149.389 244.89L153.791 240.109C154.229 239.635 154.584 239.229 154.854 238.893C155.124 238.551 155.318 238.221 155.438 237.903C155.565 237.579 155.628 237.21 155.628 236.795C155.628 235.961 155.448 235.379 155.087 235.048C154.727 234.719 154.154 234.553 153.368 234.553C152.738 234.553 152.231 234.619 151.846 234.752C151.468 234.877 151.193 235.123 151.019 235.489C150.851 235.85 150.766 236.384 150.766 237.092H148.957C148.957 235.658 149.342 234.635 150.109 234.022C150.877 233.404 151.918 233.095 153.233 233.095C154.169 233.095 154.941 233.26 155.546 233.59C156.152 233.914 156.602 234.355 156.896 234.914C157.191 235.466 157.337 236.087 157.337 236.778C157.337 237.353 157.266 237.858 157.121 238.29C156.983 238.717 156.752 239.142 156.429 239.569C156.105 239.994 155.666 240.499 155.114 241.081L151.217 245.205L151.045 244.909H157.266V246.313H149.56ZM161.955 246.313L166.601 234.311L166.861 234.778H160.335V233.292H168.265V234.706L163.855 246.313H161.955Z" fill="#9F9892"/>
<path d="M198.282 246.313L198.11 244.89L202.512 240.109C202.951 239.635 203.305 239.229 203.575 238.893C203.845 238.551 204.04 238.221 204.16 237.903C204.286 237.579 204.349 237.21 204.349 236.795C204.349 235.961 204.169 235.379 203.808 235.048C203.449 234.719 202.876 234.553 202.09 234.553C201.459 234.553 200.952 234.619 200.568 234.752C200.19 234.877 199.914 235.123 199.741 235.489C199.572 235.85 199.488 236.384 199.488 237.092H197.678C197.678 235.658 198.063 234.635 198.831 234.022C199.598 233.404 200.64 233.095 201.954 233.095C202.89 233.095 203.662 233.26 204.268 233.59C204.873 233.914 205.324 234.355 205.617 234.914C205.912 235.466 206.059 236.087 206.059 236.778C206.059 237.353 205.987 237.858 205.843 238.29C205.704 238.717 205.474 239.142 205.15 239.569C204.826 239.994 204.388 240.499 203.836 241.081L199.938 245.205L199.767 244.909H205.987V246.313H198.282ZM213.063 246.51C211.981 246.51 211.118 246.352 210.47 246.034C209.822 245.709 209.353 245.275 209.066 244.728C208.783 244.182 208.642 243.569 208.642 242.891C208.642 242.069 208.907 241.355 209.435 240.748C209.963 240.142 210.662 239.67 211.532 239.334L211.586 239.578C211.124 239.355 210.686 239.104 210.272 238.821C209.864 238.539 209.531 238.198 209.273 237.795C209.02 237.386 208.895 236.895 208.895 236.318C208.895 235.76 209.032 235.238 209.308 234.752C209.59 234.259 210.038 233.86 210.65 233.553C211.263 233.248 212.066 233.095 213.063 233.095C214.142 233.095 214.989 233.25 215.6 233.562C216.212 233.875 216.642 234.274 216.888 234.76C217.139 235.241 217.266 235.738 217.266 236.255C217.266 236.759 217.155 237.212 216.933 237.614C216.711 238.011 216.39 238.365 215.97 238.677C215.555 238.984 215.048 239.25 214.448 239.479L214.602 239.254C215.118 239.499 215.595 239.782 216.033 240.1C216.477 240.418 216.834 240.802 217.104 241.252C217.38 241.696 217.519 242.24 217.519 242.883C217.519 243.555 217.371 244.167 217.077 244.719C216.789 245.266 216.318 245.7 215.663 246.024C215.01 246.348 214.142 246.51 213.063 246.51ZM213.134 245.052C213.866 245.052 214.421 244.956 214.799 244.764C215.184 244.571 215.445 244.308 215.583 243.972C215.726 243.635 215.799 243.257 215.799 242.837C215.799 242.334 215.649 241.913 215.349 241.576C215.055 241.235 214.665 240.937 214.178 240.686C213.692 240.428 213.167 240.177 212.603 239.938L213.305 240.028C212.345 240.358 211.613 240.752 211.108 241.207C210.611 241.658 210.362 242.201 210.362 242.837C210.362 243.257 210.44 243.635 210.596 243.972C210.752 244.308 211.031 244.571 211.432 244.764C211.835 244.956 212.402 245.052 213.134 245.052ZM212.828 238.75C213.255 238.618 213.678 238.437 214.098 238.209C214.523 237.975 214.877 237.698 215.159 237.381C215.442 237.062 215.583 236.708 215.583 236.318C215.583 236.036 215.529 235.76 215.421 235.489C215.318 235.219 215.093 234.998 214.745 234.823C214.403 234.644 213.866 234.553 213.134 234.553C212.486 234.553 211.976 234.637 211.604 234.806C211.232 234.968 210.968 235.181 210.812 235.445C210.655 235.703 210.578 235.979 210.578 236.273C210.578 236.687 210.719 237.045 211 237.344C211.289 237.644 211.664 237.912 212.126 238.146C212.594 238.381 213.095 238.611 213.629 238.839L212.828 238.75Z" fill="#9F9892"/>
<path d="M247.003 246.313L246.832 244.89L251.234 240.109C251.672 239.635 252.027 239.229 252.297 238.893C252.566 238.551 252.761 238.221 252.881 237.903C253.008 237.579 253.071 237.21 253.071 236.795C253.071 235.961 252.89 235.379 252.53 235.048C252.17 234.719 251.597 234.553 250.811 234.553C250.18 234.553 249.673 234.619 249.289 234.752C248.911 234.877 248.636 235.123 248.462 235.489C248.293 235.85 248.209 236.384 248.209 237.092H246.4C246.4 235.658 246.784 234.635 247.552 234.022C248.32 233.404 249.361 233.095 250.676 233.095C251.612 233.095 252.383 233.26 252.989 233.59C253.595 233.914 254.045 234.355 254.339 234.914C254.634 235.466 254.78 236.087 254.78 236.778C254.78 237.353 254.709 237.858 254.564 238.29C254.426 238.717 254.195 239.142 253.871 239.569C253.547 239.994 253.109 240.499 252.557 241.081L248.66 245.205L248.488 244.909H254.709V246.313H247.003ZM260.235 246.313L263.89 240.118L264.079 240.433C263.678 240.727 263.298 240.928 262.945 241.036C262.596 241.144 262.155 241.198 261.622 241.198C260.721 241.198 259.968 241.033 259.362 240.703C258.757 240.374 258.3 239.917 257.994 239.334C257.687 238.747 257.535 238.071 257.535 237.309C257.535 236.546 257.673 235.846 257.949 235.21C258.231 234.574 258.687 234.064 259.318 233.68C259.954 233.29 260.799 233.095 261.855 233.095C262.918 233.095 263.761 233.283 264.385 233.663C265.009 234.034 265.457 234.532 265.726 235.156C265.996 235.781 266.131 236.468 266.131 237.219C266.131 237.806 266.06 238.368 265.915 238.902C265.771 239.437 265.562 239.986 265.285 240.55C265.009 241.114 264.673 241.738 264.277 242.423L262.036 246.313H260.235ZM261.82 239.731C262.528 239.731 263.071 239.604 263.448 239.353C263.826 239.1 264.088 238.776 264.232 238.381C264.375 237.978 264.448 237.56 264.448 237.128C264.448 236.679 264.373 236.259 264.223 235.868C264.079 235.478 263.814 235.163 263.431 234.923C263.047 234.677 262.498 234.553 261.784 234.553C261.076 234.553 260.538 234.677 260.172 234.923C259.806 235.163 259.555 235.478 259.416 235.868C259.285 236.259 259.218 236.679 259.218 237.128C259.218 237.56 259.285 237.978 259.416 238.381C259.555 238.776 259.809 239.1 260.181 239.353C260.559 239.604 261.106 239.731 261.82 239.731Z" fill="#9F9892"/>
<path d="M299.758 246.51C298.791 246.51 298.017 246.385 297.435 246.132C296.853 245.874 296.412 245.449 296.111 244.855C295.818 244.259 295.619 243.452 295.518 242.432H297.245C297.294 243.158 297.407 243.71 297.588 244.089C297.773 244.461 298.05 244.716 298.416 244.855C298.782 244.986 299.263 245.052 299.856 245.052C300.636 245.052 301.197 244.855 301.539 244.458C301.887 244.062 302.062 243.482 302.062 242.719C302.062 242.048 301.987 241.522 301.837 241.144C301.692 240.761 301.396 240.49 300.945 240.334C300.502 240.172 299.829 240.09 298.929 240.09V238.75C299.625 238.75 300.168 238.705 300.558 238.614C300.955 238.518 301.243 238.377 301.422 238.191C301.602 237.999 301.713 237.764 301.755 237.489C301.804 237.207 301.828 236.882 301.828 236.516C301.828 235.904 301.671 235.424 301.359 235.076C301.047 234.727 300.504 234.553 299.73 234.553C299.195 234.553 298.752 234.611 298.397 234.724C298.043 234.832 297.777 235.067 297.597 235.426C297.423 235.787 297.336 236.339 297.336 237.083H295.607C295.607 235.979 295.788 235.142 296.147 234.571C296.513 233.994 297.008 233.605 297.632 233.4C298.257 233.196 298.953 233.095 299.721 233.095C300.471 233.095 301.131 233.215 301.701 233.454C302.271 233.689 302.715 234.055 303.034 234.553C303.358 235.052 303.52 235.696 303.52 236.489C303.52 237.095 303.439 237.609 303.276 238.029C303.121 238.449 302.865 238.776 302.511 239.01C302.163 239.238 301.696 239.379 301.107 239.433L301.161 239.353C301.713 239.437 302.185 239.595 302.574 239.83C302.964 240.064 303.262 240.412 303.466 240.874C303.676 241.33 303.78 241.949 303.78 242.729C303.78 243.557 303.621 244.254 303.304 244.818C302.992 245.376 302.536 245.799 301.936 246.088C301.335 246.369 300.61 246.51 299.758 246.51ZM310.522 246.51C309.653 246.51 308.936 246.394 308.372 246.16C307.814 245.926 307.373 245.608 307.049 245.205C306.73 244.803 306.496 244.346 306.347 243.836C306.197 243.327 306.101 242.792 306.059 242.233C306.022 241.675 306.005 241.126 306.005 240.586V239.2C306.005 238.647 306.022 238.086 306.059 237.515C306.101 236.94 306.193 236.39 306.338 235.868C306.488 235.339 306.721 234.869 307.04 234.454C307.363 234.034 307.807 233.703 308.372 233.464C308.936 233.217 309.653 233.095 310.522 233.095C311.393 233.095 312.111 233.217 312.674 233.464C313.239 233.703 313.68 234.034 313.997 234.454C314.321 234.869 314.556 235.339 314.699 235.868C314.849 236.39 314.943 236.94 314.978 237.515C315.021 238.086 315.042 238.647 315.042 239.2V240.586C315.042 241.126 315.021 241.675 314.978 242.233C314.943 242.792 314.849 243.327 314.699 243.836C314.549 244.346 314.312 244.803 313.988 245.205C313.671 245.608 313.23 245.926 312.665 246.16C312.108 246.394 311.393 246.51 310.522 246.51ZM310.522 245.052C311.165 245.052 311.669 244.938 312.035 244.71C312.402 244.475 312.669 244.16 312.836 243.764C313.005 243.362 313.11 242.903 313.151 242.388C313.199 241.865 313.223 241.315 313.223 240.74V238.966C313.223 238.389 313.199 237.837 313.151 237.309C313.11 236.774 313.002 236.304 312.827 235.895C312.66 235.48 312.392 235.154 312.026 234.914C311.667 234.673 311.165 234.553 310.522 234.553C309.886 234.553 309.386 234.673 309.02 234.914C308.654 235.154 308.384 235.48 308.21 235.895C308.042 236.304 307.934 236.774 307.885 237.309C307.844 237.837 307.823 238.389 307.823 238.966V240.74C307.823 241.315 307.844 241.865 307.885 242.388C307.934 242.903 308.042 243.362 308.21 243.764C308.377 244.16 308.645 244.475 309.011 244.71C309.377 244.938 309.881 245.052 310.522 245.052Z" fill="#9F9892"/>
<path d="M253.362 65.7805H256.971V55.2727L257.376 55.6328L253.605 56.038L253.443 54.6064L257.304 54.1561H258.78V65.7805H261.967V67.1762H253.362V65.7805Z" fill="#9F9892"/>
<path d="M302.308 67.1762L302.137 65.7535L306.539 60.9723C306.978 60.4981 307.332 60.0929 307.602 59.7568C307.872 59.4146 308.067 59.0845 308.186 58.7663C308.313 58.4421 308.376 58.073 308.376 57.6588C308.376 56.8245 308.196 56.2422 307.835 55.9119C307.475 55.5819 306.902 55.4168 306.116 55.4168C305.486 55.4168 304.979 55.4828 304.594 55.6149C304.216 55.741 303.941 55.987 303.767 56.3532C303.599 56.7133 303.514 57.2476 303.514 57.9559H301.705C301.705 56.5213 302.09 55.4978 302.857 54.8855C303.625 54.2672 304.667 53.958 305.981 53.958C306.917 53.958 307.689 54.1232 308.294 54.4533C308.9 54.7775 309.35 55.2187 309.644 55.7769C309.939 56.3292 310.085 56.9505 310.085 57.6407C310.085 58.217 310.014 58.7214 309.869 59.1535C309.731 59.5796 309.5 60.0059 309.177 60.4321C308.853 60.8584 308.414 61.3626 307.862 61.9448L303.965 66.0687L303.794 65.7716H310.014V67.1762H302.308Z" fill="#9F9892"/>
<path d="M6.11202 291.294C5.14586 291.294 4.37173 291.169 3.78963 290.916C3.20753 290.658 2.76646 290.233 2.46641 289.639C2.17236 289.043 1.97433 288.236 1.87231 287.216H3.60061C3.6486 287.942 3.76262 288.494 3.94266 288.874C4.12869 289.245 4.40473 289.5 4.7708 289.639C5.13686 289.771 5.61693 289.836 6.21105 289.836C6.99117 289.836 7.55227 289.639 7.89433 289.242C8.24238 288.846 8.41641 288.266 8.41641 287.504C8.41641 286.832 8.34141 286.306 8.19137 285.928C8.04735 285.545 7.7503 285.274 7.30023 285.118C6.85616 284.956 6.18404 284.875 5.28389 284.875V283.534C5.98 283.534 6.5231 283.489 6.91316 283.398C7.30923 283.302 7.59727 283.161 7.77731 282.975C7.95734 282.783 8.06836 282.548 8.11036 282.273C8.15837 281.991 8.18238 281.666 8.18238 281.3C8.18238 280.689 8.02635 280.208 7.7143 279.86C7.40224 279.511 6.85914 279.337 6.08501 279.337C5.55092 279.337 5.10686 279.395 4.7528 279.508C4.39873 279.616 4.1317 279.851 3.95166 280.21C3.77764 280.571 3.69061 281.123 3.69061 281.867H1.96232C1.96232 280.764 2.14235 279.926 2.50241 279.356C2.86848 278.779 3.36356 278.389 3.98766 278.185C4.61177 277.98 5.30788 277.879 6.07602 277.879C6.82615 277.879 7.48625 277.999 8.05635 278.239C8.62645 278.473 9.07053 278.839 9.38857 279.337C9.71264 279.836 9.87466 280.48 9.87466 281.273C9.87466 281.879 9.79365 282.393 9.63161 282.813C9.47559 283.233 9.22055 283.56 8.86649 283.794C8.51844 284.022 8.05036 284.163 7.46225 284.217L7.51626 284.137C8.06836 284.221 8.53944 284.379 8.9295 284.614C9.31956 284.848 9.61662 285.196 9.82065 285.658C10.0307 286.114 10.1357 286.733 10.1357 287.513C10.1357 288.341 9.97668 289.038 9.65862 289.602C9.34657 290.16 8.8905 290.583 8.29039 290.872C7.69029 291.154 6.96417 291.294 6.11202 291.294ZM13.1062 289.701H16.7158V279.194L17.1209 279.553L13.3493 279.959L13.1872 278.527L17.0489 278.077H18.5252V289.701H21.7117V291.097H13.1062V289.701Z" fill="#9F9892"/>
</svg>
