<svg width="332" height="107" viewBox="0 0 332 107" fill="none" xmlns="http://www.w3.org/2000/svg">
<path fill-rule="evenodd" clip-rule="evenodd" d="M29.9999 9.99C27.0499 6.11441 21.9076 0 13.3012 0C4.60748 0 0 6.57975 0 12.5719C0 20.456 4.84779 27.2326 10.9554 32.7968C17.0719 38.3689 24.5829 42.8055 29.9999 46C35.4171 42.8055 42.928 38.3689 49.0447 32.7968C55.1522 27.2326 60 20.456 60 12.5719C60 6.57975 55.3922 0 46.6986 0C38.0924 0 32.9497 6.11441 29.9999 9.99Z" fill="#B4B28C"/>
<path fill-rule="evenodd" clip-rule="evenodd" d="M97.9999 9.99C95.0499 6.11441 89.9076 0 81.3012 0C72.6075 0 68 6.57975 68 12.5719C68 20.456 72.8478 27.2326 78.9554 32.7968C85.0719 38.3689 92.5829 42.8055 97.9999 46C103.417 42.8055 110.928 38.3689 117.045 32.7968C123.152 27.2326 128 20.456 128 12.5719C128 6.57975 123.392 0 114.699 0C106.092 0 100.95 6.11441 97.9999 9.99Z" fill="#EDCAC2"/>
<path fill-rule="evenodd" clip-rule="evenodd" d="M166 9.99C163.05 6.11441 157.908 0 149.301 0C140.607 0 136 6.57975 136 12.5719C136 20.456 140.848 27.2326 146.955 32.7968C153.072 38.3689 160.583 42.8055 166 46C171.417 42.8055 178.928 38.3689 185.045 32.7968C191.152 27.2326 196 20.456 196 12.5719C196 6.57975 191.392 0 182.699 0C174.092 0 168.95 6.11441 166 9.99Z" fill="#EFE5D9"/>
<path d="M182.698 0.5C191.085 0.5 195.5 6.82415 195.5 12.5723C195.5 20.2434 190.78 26.8947 184.708 32.4268C178.73 37.873 171.399 42.2335 165.999 45.4189C160.599 42.2336 153.27 37.8726 147.292 32.4268C141.22 26.8947 136.5 20.2434 136.5 12.5723C136.5 6.82422 140.915 0.5002 149.301 0.5C157.644 0.5 162.655 6.42008 165.603 10.293L166 10.8154L166.397 10.293C169.345 6.42015 174.355 0.50016 182.698 0.5Z" stroke="black" stroke-opacity="0.06"/>
<path fill-rule="evenodd" clip-rule="evenodd" d="M234 9.99C231.05 6.11441 225.908 0 217.301 0C208.607 0 204 6.57975 204 12.5719C204 20.456 208.848 27.2326 214.955 32.7968C221.072 38.3689 228.583 42.8055 234 46C239.417 42.8055 246.928 38.3689 253.045 32.7968C259.152 27.2326 264 20.456 264 12.5719C264 6.57975 259.392 0 250.699 0C242.092 0 236.95 6.11441 234 9.99Z" fill="#856A57"/>
<path fill-rule="evenodd" clip-rule="evenodd" d="M302 9.99C299.05 6.11441 293.908 0 285.301 0C276.607 0 272 6.57975 272 12.5719C272 20.456 276.848 27.2326 282.955 32.7968C289.072 38.3689 296.583 42.8055 302 46C307.417 42.8055 314.928 38.3689 321.045 32.7968C327.152 27.2326 332 20.456 332 12.5719C332 6.57975 327.392 0 318.699 0C310.092 0 304.95 6.11441 302 9.99Z" fill="#4C3B2D"/>
<path fill-rule="evenodd" clip-rule="evenodd" d="M29.9999 70.99C27.0499 67.1144 21.9076 61 13.3012 61C4.60748 61 0 67.5797 0 73.5719C0 81.456 4.84779 88.2326 10.9554 93.7968C17.0719 99.3689 24.5829 103.805 29.9999 107C35.4171 103.805 42.928 99.3689 49.0447 93.7968C55.1522 88.2326 60 81.456 60 73.5719C60 67.5797 55.3922 61 46.6986 61C38.0924 61 32.9497 67.1144 29.9999 70.99Z" fill="#716E43"/>
<path fill-rule="evenodd" clip-rule="evenodd" d="M97.9999 70.99C95.0499 67.1144 89.9076 61 81.3012 61C72.6075 61 68 67.5797 68 73.5719C68 81.456 72.8478 88.2326 78.9554 93.7968C85.0719 99.3689 92.5829 103.805 97.9999 107C103.417 103.805 110.928 99.3689 117.045 93.7968C123.152 88.2326 128 81.456 128 73.5719C128 67.5797 123.392 61 114.699 61C106.092 61 100.95 67.1144 97.9999 70.99Z" fill="#7E4649"/>
<path fill-rule="evenodd" clip-rule="evenodd" d="M166 70.99C163.05 67.1144 157.908 61 149.301 61C140.607 61 136 67.5797 136 73.5719C136 81.456 140.848 88.2326 146.955 93.7968C153.072 99.3689 160.583 103.805 166 107C171.417 103.805 178.928 99.3689 185.045 93.7968C191.152 88.2326 196 81.456 196 73.5719C196 67.5797 191.392 61 182.699 61C174.092 61 168.95 67.1144 166 70.99Z" fill="#D7C5AC"/>
<path d="M182.698 61.5C191.085 61.5 195.5 67.8241 195.5 73.5723C195.5 81.2434 190.78 87.8947 184.708 93.4268C178.73 98.873 171.399 103.234 165.999 106.419C160.599 103.234 153.27 98.8726 147.292 93.4268C141.22 87.8947 136.5 81.2434 136.5 73.5723C136.5 67.8242 140.915 61.5002 149.301 61.5C157.644 61.5 162.655 67.4201 165.603 71.293L166 71.8154L166.397 71.293C169.345 67.4201 174.355 61.5002 182.698 61.5Z" stroke="black" stroke-opacity="0.06"/>
<path fill-rule="evenodd" clip-rule="evenodd" d="M234 70.99C231.05 67.1144 225.908 61 217.301 61C208.607 61 204 67.5797 204 73.5719C204 81.456 208.848 88.2326 214.955 93.7968C221.072 99.3689 228.583 103.805 234 107C239.417 103.805 246.928 99.3689 253.045 93.7968C259.152 88.2326 264 81.456 264 73.5719C264 67.5797 259.392 61 250.699 61C242.092 61 236.95 67.1144 234 70.99Z" fill="#5F4630"/>
<path fill-rule="evenodd" clip-rule="evenodd" d="M302 70.99C299.05 67.1144 293.908 61 285.301 61C276.607 61 272 67.5797 272 73.5719C272 81.456 276.848 88.2326 282.955 93.7968C289.072 99.3689 296.583 103.805 302 107C307.417 103.805 314.928 99.3689 321.045 93.7968C327.152 88.2326 332 81.456 332 73.5719C332 67.5797 327.392 61 318.699 61C310.092 61 304.95 67.1144 302 70.99Z" fill="#0B0B0B"/>
</svg>
