<svg width="335" height="43" viewBox="0 0 335 43" fill="none" xmlns="http://www.w3.org/2000/svg">
<path fill-rule="evenodd" clip-rule="evenodd" d="M26.9747 42.3717C22.104 39.4291 15.3503 35.3425 9.8506 30.2099C4.35893 25.0846 0 18.8425 0 11.5803C0 6.06076 4.14286 0 11.9599 0C19.6984 0 24.3222 5.63213 26.9747 9.20203V42.3717Z" fill="#B4B28C"/>
<path fill-rule="evenodd" clip-rule="evenodd" d="M27.0251 9.20203C29.6775 5.63213 34.3016 0 42.0399 0C49.8568 0 54 6.06076 54 11.5803C54 18.8425 49.641 25.0846 44.1494 30.2099C38.6496 35.3425 31.896 39.4291 27.0251 42.3717V9.20203Z" fill="#716E43"/>
<path fill-rule="evenodd" clip-rule="evenodd" d="M96 9.20203C98.6549 5.63213 103.283 0 111.029 0C118.853 0 123 6.06076 123 11.5803C123 18.8425 118.637 25.0846 113.14 30.2099C107.635 35.3425 100.875 39.4291 96 42.3717V9.20203Z" fill="#7E4649"/>
<path fill-rule="evenodd" clip-rule="evenodd" d="M96 42.3717C91.1247 39.4291 84.3647 35.3425 78.8598 30.2099C73.363 25.0846 69 18.8425 69 11.5803C69 6.06079 73.1467 3.40285e-05 80.9711 3.40285e-05C88.7169 3.40285e-05 93.345 5.63216 96 9.20206V42.3717Z" fill="#EDCAC2"/>
<path fill-rule="evenodd" clip-rule="evenodd" d="M165 9.20203C167.655 5.63213 172.283 0 180.029 0C187.853 0 192 6.06076 192 11.5803C192 18.8425 187.637 25.0846 182.14 30.2099C176.635 35.3425 169.875 39.4291 165 42.3717V9.20203Z" fill="#D7C5AC"/>
<path fill-rule="evenodd" clip-rule="evenodd" d="M165 42.3717C160.125 39.4291 153.365 35.3425 147.86 30.2099C142.363 25.0846 138 18.8425 138 11.5803C138 6.06079 142.147 3.40285e-05 149.971 3.40285e-05C157.717 3.40285e-05 162.345 5.63216 165 9.20206V42.3717Z" fill="#EFE5D9"/>
<path d="M149.971 0.5C157.357 0.5 161.833 5.79785 164.5 9.36816V41.4834C159.698 38.5798 153.384 34.6763 148.201 29.8438C142.74 24.7522 138.5 18.6343 138.5 11.5801C138.5 6.2934 142.464 0.50018 149.971 0.5Z" stroke="black" stroke-opacity="0.02"/>
<path fill-rule="evenodd" clip-rule="evenodd" d="M239 9.20203C241.655 5.63213 246.283 0 254.029 0C261.853 0 266 6.06076 266 11.5803C266 18.8425 261.637 25.0846 256.14 30.2099C250.635 35.3425 243.875 39.4291 239 42.3717V9.20203Z" fill="#5F4630"/>
<path fill-rule="evenodd" clip-rule="evenodd" d="M239 42.3717C234.125 39.4291 227.365 35.3425 221.86 30.2099C216.363 25.0846 212 18.8425 212 11.5803C212 6.06079 216.147 3.40285e-05 223.971 3.40285e-05C231.717 3.40285e-05 236.345 5.63216 239 9.20206V42.3717Z" fill="#856A57"/>
<path fill-rule="evenodd" clip-rule="evenodd" d="M308 9.20203C310.655 5.63213 315.283 0 323.029 0C330.853 0 335 6.06076 335 11.5803C335 18.8425 330.637 25.0846 325.14 30.2099C319.635 35.3425 312.875 39.4291 308 42.3717V9.20203Z" fill="#0B0B0B"/>
<path fill-rule="evenodd" clip-rule="evenodd" d="M308 42.3717C303.125 39.4291 296.365 35.3425 290.86 30.2099C285.363 25.0846 281 18.8425 281 11.5803C281 6.06079 285.147 3.40285e-05 292.971 3.40285e-05C300.717 3.40285e-05 305.345 5.63216 308 9.20206V42.3717Z" fill="#4C3B2D"/>
</svg>
